<svg version="1.1" viewBox="0.0 0.0 538.6929133858267 487.9422572178478" fill="none" stroke="none" stroke-linecap="square" stroke-miterlimit="10" xmlns:xlink="http://www.w3.org/1999/xlink" xmlns="http://www.w3.org/2000/svg"><clipPath id="p.0"><path d="m0 0l538.69293 0l0 487.94226l-538.69293 0l0 -487.94226z" clip-rule="nonzero"/></clipPath><g clip-path="url(#p.0)"><path fill="#000000" fill-opacity="0.0" d="m0 0l538.69293 0l0 487.94226l-538.69293 0z" fill-rule="evenodd"/><path fill="#000000" fill-opacity="0.0" d="m47.834015 32.406193l151.08661 139.93701" fill-rule="evenodd"/><path stroke="#000000" stroke-width="2.0" stroke-linejoin="round" stroke-linecap="butt" d="m47.834015 32.406193l151.08661 139.93701" fill-rule="evenodd"/><path fill="#cccccc" d="m187.00656 201.1063l0 0c0 -22.465378 18.211792 -40.677155 40.67717 -40.677155l0 0c10.788254 0 21.134644 4.285614 28.763107 11.9140625c7.6284485 7.6284485 11.9140625 17.974838 11.9140625 28.763092l0 0c0 22.465378 -18.211792 40.67717 -40.67717 40.67717l0 0c-22.465378 0 -40.67717 -18.211792 -40.67717 -40.67717z" fill-rule="evenodd"/><path fill="#000000" d="m215.95984 208.02629l0 -9.671875l1.46875 0l0 1.359375q0.453125 -0.71875 1.203125 -1.140625q0.765625 -0.4375 1.71875 -0.4375q1.078125 0 1.765625 0.453125q0.6875 0.4375 0.96875 1.234375q1.15625 -1.6875 2.984375 -1.6875q1.453125 0 2.21875 0.796875q0.78125 0.796875 0.78125 2.453125l0 6.640625l-1.640625 0l0 -6.09375q0 -0.984375 -0.15625 -1.40625q-0.15625 -0.4375 -0.578125 -0.703125q-0.421875 -0.265625 -0.984375 -0.265625q-1.015625 0 -1.6875 0.6875q-0.671875 0.671875 -0.671875 2.15625l0 5.625l-1.640625 0l0 -6.28125q0 -1.09375 -0.40625 -1.640625q-0.40625 -0.546875 -1.3125 -0.546875q-0.6875 0 -1.28125 0.359375q-0.59375 0.359375 -0.859375 1.0625q-0.25 0.703125 -0.25 2.03125l0 5.015625l-1.640625 0zm21.259552 0l-1.640625 0l0 -10.453125q-0.59375 0.5625 -1.5625 1.140625q-0.953125 0.5625 -1.71875 0.84375l0 -1.59375q1.375 -0.640625 2.40625 -1.5625q1.03125 -0.921875 1.453125 -1.78125l1.0625 0l0 13.40625z" fill-rule="nonzero"/><path fill="#cccccc" d="m420.22177 420.4685l0 0c0 -22.465393 18.211792 -40.677155 40.677185 -40.677155l0 0c10.788239 0 21.134644 4.285614 28.763092 11.9140625c7.6284485 7.6284485 11.9140625 17.974823 11.9140625 28.763092l0 0c0 22.465363 -18.211792 40.677155 -40.677155 40.677155l0 0c-22.465393 0 -40.677185 -18.211792 -40.677185 -40.677155z" fill-rule="evenodd"/><path fill="#000000" d="m449.17508 427.3885l0 -9.671875l1.46875 0l0 1.359375q0.453125 -0.71875 1.203125 -1.140625q0.765625 -0.4375 1.71875 -0.4375q1.078125 0 1.765625 0.453125q0.6875 0.4375 0.96875 1.234375q1.15625 -1.6875 2.984375 -1.6875q1.453125 0 2.21875 0.796875q0.78125 0.796875 0.78125 2.453125l0 6.640625l-1.640625 0l0 -6.09375q0 -0.984375 -0.15625 -1.40625q-0.15625 -0.4375 -0.578125 -0.703125q-0.421875 -0.265625 -0.984375 -0.265625q-1.015625 0 -1.6875 0.6875q-0.671875 0.671875 -0.671875 2.15625l0 5.625l-1.640625 0l0 -6.28125q0 -1.09375 -0.40625 -1.640625q-0.40625 -0.546875 -1.3125 -0.546875q-0.6875 0 -1.28125 0.359375q-0.59375 0.359375 -0.859375 1.0625q-0.25 0.703125 -0.25 2.03125l0 5.015625l-1.640625 0zm23.697052 -1.578125l0 1.578125l-8.828125 0q-0.015625 -0.59375 0.1875 -1.140625q0.34375 -0.90625 1.078125 -1.78125q0.75 -0.875 2.15625 -2.015625q2.171875 -1.78125 2.9375 -2.828125q0.765625 -1.046875 0.765625 -1.96875q0 -0.984375 -0.703125 -1.640625q-0.6875 -0.671875 -1.8125 -0.671875q-1.1875 0 -1.90625 0.71875q-0.703125 0.703125 -0.703125 1.953125l-1.6875 -0.171875q0.171875 -1.890625 1.296875 -2.875q1.140625 -0.984375 3.03125 -0.984375q1.921875 0 3.046875 1.0625q1.125 1.0625 1.125 2.640625q0 0.796875 -0.328125 1.578125q-0.328125 0.78125 -1.09375 1.640625q-0.75 0.84375 -2.53125 2.34375q-1.46875 1.234375 -1.890625 1.6875q-0.421875 0.4375 -0.6875 0.875l6.546875 0z" fill-rule="nonzero"/><path fill="#000000" fill-opacity="0.0" d="m256.44684 229.8694l175.68503 161.82677" fill-rule="evenodd"/><path stroke="#000000" stroke-width="2.0" stroke-linejoin="round" stroke-linecap="butt" d="m256.44684 229.8694l175.68503 161.82677" fill-rule="evenodd"/><path fill="#000000" fill-opacity="0.0" d="m242.83858 247.30052l40.661423 0l0 42.015762l-40.661423 0z" fill-rule="evenodd"/><path fill="#000000" d="m255.18233 274.42365q-1.140625 0 -1.921875 -1.015625q-0.765625 -1.015625 -0.765625 -2.46875q0 -1.3125 0.390625 -2.84375q0.390625 -1.546875 1.09375 -3.0q0.71875 -1.46875 1.90625 -2.4375q1.2031403 -0.96875 2.6093903 -0.96875q1.5 0 2.140625 1.046875q0.65625 1.03125 0.65625 2.625q0 1.28125 -0.40625 2.8125q-0.40625 1.515625 -1.15625 2.953125q-0.734375 1.421875 -1.9375 2.359375q-1.203125 0.9375 -2.6093903 0.9375zm4.1562653 -6.875q0.390625 -1.609375 0.390625 -3.21875q0 -0.609375 -0.0625 -1.03125q-0.0625 -0.421875 -0.390625 -0.796875q-0.3125 -0.390625 -0.890625 -0.390625q-2.3125 0 -3.6718903 5.4375l4.6250153 0zm-0.109375 0.4375l-4.6250153 0q-0.546875 2.125 -0.546875 3.796875q0 2.21875 1.21875 2.21875q2.4687653 0 3.9531403 -6.015625z" fill-rule="nonzero"/><path fill="#000000" d="m268.048 280.17365l0 1.046875l-5.890625 0q-0.015625 -0.390625 0.125 -0.765625q0.234375 -0.59375 0.71875 -1.171875q0.5 -0.59375 1.4375 -1.359375q1.453125 -1.1875 1.953125 -1.875q0.515625 -0.703125 0.515625 -1.3125q0 -0.65625 -0.46875 -1.09375q-0.453125 -0.453125 -1.203125 -0.453125q-0.796875 0 -1.265625 0.46875q-0.46875 0.46875 -0.484375 1.3125l-1.125 -0.109375q0.125 -1.265625 0.875 -1.921875q0.75 -0.65625 2.015625 -0.65625q1.28125 0 2.03125 0.71875q0.75 0.703125 0.75 1.75q0 0.53125 -0.21875 1.046875q-0.21875 0.515625 -0.734375 1.09375q-0.5 0.5625 -1.671875 1.5625q-0.984375 0.828125 -1.265625 1.125q-0.28125 0.296875 -0.46875 0.59375l4.375 0z" fill-rule="nonzero"/><path fill="#000000" fill-opacity="0.0" d="m37.745407 50.700787l36.88189 0l0 42.01575l-36.88189 0z" fill-rule="evenodd"/><path fill="#000000" d="m50.089157 77.82391q-1.140625 0 -1.921875 -1.015625q-0.765625 -1.015625 -0.765625 -2.46875q0 -1.3125 0.390625 -2.84375q0.390625 -1.546875 1.09375 -3.0q0.71875 -1.46875 1.90625 -2.4375q1.203125 -0.96875 2.609375 -0.96875q1.5 0 2.140625 1.046875q0.65625 1.03125 0.65625 2.625q0 1.28125 -0.40625 2.8125q-0.40625 1.515625 -1.15625 2.953125q-0.734375 1.421875 -1.9375 2.359375q-1.203125 0.9375 -2.609375 0.9375zm4.15625 -6.875q0.390625 -1.609375 0.390625 -3.21875q0 -0.609375 -0.0625 -1.03125q-0.0625 -0.421875 -0.390625 -0.796875q-0.3125 -0.390625 -0.890625 -0.390625q-2.3125 0 -3.671875 5.4375l4.625 0zm-0.109375 0.4375l-4.625 0q-0.546875 2.125 -0.546875 3.796875q0 2.21875 1.21875 2.21875q2.46875 0 3.953125 -6.015625z" fill-rule="nonzero"/><path fill="#000000" d="m61.32982 84.62079l-1.09375 0l0 -6.96875q-0.40625 0.375 -1.046875 0.75q-0.640625 0.375 -1.140625 0.578125l0 -1.0625q0.90625 -0.4375 1.59375 -1.046875q0.6875 -0.609375 0.96875 -1.1875l0.71875 0l0 8.9375z" fill-rule="nonzero"/><path fill="#000000" fill-opacity="0.0" d="m48.577427 21.750656l178.36221 0" fill-rule="evenodd"/><path stroke="#b7b7b7" stroke-width="1.0" stroke-linejoin="round" stroke-linecap="butt" d="m52.367428 21.750656l170.7822 0" fill-rule="evenodd"/><path stroke="#b7b7b7" stroke-width="1.0" stroke-linecap="butt" d="m52.367428 23.395657l-3.290001 0l0 -3.290001l3.290001 0l0 3.290001z" fill-rule="nonzero"/><path stroke="#b7b7b7" stroke-width="1.0" stroke-linecap="butt" d="m223.14963 20.105656l3.2900085 0l0 3.290001l-3.2900085 0l0 -3.290001z" fill-rule="nonzero"/><path fill="#000000" fill-opacity="0.0" d="m229.1076 21.750656l255.21262 0" fill-rule="evenodd"/><path stroke="#b7b7b7" stroke-width="1.0" stroke-linejoin="round" stroke-linecap="butt" d="m232.89761 21.750656l247.6326 0" fill-rule="evenodd"/><path stroke="#b7b7b7" stroke-width="1.0" stroke-linecap="butt" d="m232.89761 23.395657l-3.2900085 0l0 -3.290001l3.2900085 0l0 3.290001z" fill-rule="nonzero"/><path stroke="#b7b7b7" stroke-width="1.0" stroke-linecap="butt" d="m480.5302 20.105656l3.2900085 0l0 3.290001l-3.2900085 0l0 -3.290001z" fill-rule="nonzero"/><path fill="#000000" fill-opacity="0.0" d="m32.884514 36.299213l0 165.25984" fill-rule="evenodd"/><path stroke="#b7b7b7" stroke-width="1.0" stroke-linejoin="round" stroke-linecap="butt" d="m32.884514 40.089214l0 157.67982" fill-rule="evenodd"/><path stroke="#b7b7b7" stroke-width="1.0" stroke-linecap="butt" d="m31.239515 40.089214l0 -3.290001l3.289999 0l0 3.290001l-3.289999 0z" fill-rule="nonzero"/><path stroke="#b7b7b7" stroke-width="1.0" stroke-linecap="butt" d="m34.529514 197.76906l0 3.2899933l-3.289999 0l0 -3.2899933l3.289999 0z" fill-rule="nonzero"/><path fill="#000000" fill-opacity="0.0" d="m32.884514 206.65486l0 227.62206" fill-rule="evenodd"/><path stroke="#b7b7b7" stroke-width="1.0" stroke-linejoin="round" stroke-linecap="butt" d="m32.884514 210.44485l0 220.04205" fill-rule="evenodd"/><path stroke="#b7b7b7" stroke-width="1.0" stroke-linecap="butt" d="m31.239515 210.44485l0 -3.2899933l3.289999 0l0 3.2899933l-3.289999 0z" fill-rule="nonzero"/><path stroke="#b7b7b7" stroke-width="1.0" stroke-linecap="butt" d="m34.529514 430.4869l0 3.2900085l-3.289999 0l0 -3.2900085l3.289999 0z" fill-rule="nonzero"/><path fill="#000000" fill-opacity="0.0" d="m126.24147 68.879265l36.88188 0l0 42.015747l-36.88188 0z" fill-rule="evenodd"/><path fill="#000000" d="m136.60085 95.79926l0 -13.359375l1.78125 0l0 11.78125l6.5625 0l0 1.578125l-8.34375 0z" fill-rule="nonzero"/><path fill="#000000" d="m150.25781 102.79926l-1.09375 0l0 -6.96875q-0.40625 0.375 -1.046875 0.75q-0.640625 0.375 -1.140625 0.578125l0 -1.0625q0.90625 -0.4375 1.59375 -1.046875q0.6875 -0.609375 0.96875 -1.1875l0.71875 0l0 8.9375z" fill-rule="nonzero"/><path fill="#000000" fill-opacity="0.0" d="m352.4987 280.60236l36.881897 0l0 42.015747l-36.881897 0z" fill-rule="evenodd"/><path fill="#000000" d="m362.85806 307.52237l0 -13.359375l1.78125 0l0 11.78125l6.5625 0l0 1.578125l-8.34375 0z" fill-rule="nonzero"/><path fill="#000000" d="m378.14 313.4755l0 1.046875l-5.890625 0q-0.015625 -0.390625 0.125 -0.765625q0.234375 -0.59375 0.71875 -1.171875q0.5 -0.59375 1.4375 -1.359375q1.453125 -1.1875 1.953125 -1.875q0.515625 -0.703125 0.515625 -1.3125q0 -0.65625 -0.46875 -1.09375q-0.453125 -0.453125 -1.203125 -0.453125q-0.796875 0 -1.265625 0.46875q-0.46875 0.46875 -0.484375 1.3125l-1.125 -0.109375q0.125 -1.265625 0.875 -1.921875q0.75 -0.65625 2.015625 -0.65625q1.28125 0 2.03125 0.71875q0.75 0.703125 0.75 1.75q0 0.53125 -0.21875 1.046875q-0.21875 0.515625 -0.734375 1.09375q-0.5 0.5625 -1.671875 1.5625q-0.984375 0.828125 -1.265625 1.125q-0.28125 0.296875 -0.46875 0.59375l4.375 0z" fill-rule="nonzero"/><path fill="#000000" fill-opacity="0.0" d="m119.31759 21.750656l36.88189 0l0 42.015747l-36.88189 0z" fill-rule="evenodd"/><path fill="#b7b7b7" d="m128.4582 48.670654l3.53125 -5.03125l-3.265625 -4.640625l2.046875 0l1.484375 2.265625q0.421875 0.640625 0.671875 1.078125q0.40625 -0.59375 0.734375 -1.0625l1.640625 -2.28125l1.953125 0l-3.34375 4.546875l3.59375 5.125l-2.015625 0l-1.984375 -3.0l-0.515625 -0.8125l-2.546875 3.8125l-1.984375 0z" fill-rule="nonzero"/><path fill="#b7b7b7" d="m142.28633 55.670654l-1.09375 0l0 -6.96875q-0.40625 0.375 -1.046875 0.75q-0.640625 0.375 -1.140625 0.578125l0 -1.0625q0.90625 -0.4375 1.59375 -1.046875q0.6875 -0.609375 0.96875 -1.1875l0.71875 0l0 8.9375z" fill-rule="nonzero"/><path fill="#000000" fill-opacity="0.0" d="m341.90027 21.750656l36.881897 0l0 42.015747l-36.881897 0z" fill-rule="evenodd"/><path fill="#b7b7b7" d="m351.0409 48.670654l3.53125 -5.03125l-3.265625 -4.640625l2.046875 0l1.484375 2.265625q0.421875 0.640625 0.671875 1.078125q0.40625 -0.59375 0.734375 -1.0625l1.640625 -2.28125l1.953125 0l-3.34375 4.546875l3.59375 5.125l-2.015625 0l-1.984375 -3.0l-0.515625 -0.8125l-2.546875 3.8125l-1.984375 0z" fill-rule="nonzero"/><path fill="#b7b7b7" d="m366.49402 54.62378l0 1.046875l-5.890625 0q-0.015625 -0.390625 0.125 -0.765625q0.234375 -0.59375 0.71875 -1.171875q0.5 -0.59375 1.4375 -1.359375q1.453125 -1.1875 1.953125 -1.875q0.515625 -0.703125 0.515625 -1.3125q0 -0.65625 -0.46875 -1.09375q-0.453125 -0.453125 -1.203125 -0.453125q-0.796875 0 -1.265625 0.46875q-0.46875 0.46875 -0.484375 1.3125l-1.125 -0.109375q0.125 -1.265625 0.875 -1.921875q0.75 -0.65625 2.015625 -0.65625q1.28125 0 2.03125 0.71875q0.75 0.703125 0.75 1.75q0 0.53125 -0.21875 1.046875q-0.21875 0.515625 -0.734375 1.09375q-0.5 0.5625 -1.671875 1.5625q-0.984375 0.828125 -1.265625 1.125q-0.28125 0.296875 -0.46875 0.59375l4.375 0z" fill-rule="nonzero"/><path fill="#000000" fill-opacity="0.0" d="m32.884514 103.72966l36.88189 0l0 42.015747l-36.88189 0z" fill-rule="evenodd"/><path fill="#b7b7b7" d="m43.040764 134.36841l-0.1875 -1.53125q0.546875 0.140625 0.9375 0.140625q0.546875 0 0.875 -0.1875q0.328125 -0.171875 0.546875 -0.5q0.15625 -0.25 0.5 -1.21875q0.046875 -0.140625 0.140625 -0.40625l-3.671875 -9.6875l1.765625 0l2.015625 5.59375q0.390625 1.078125 0.703125 2.25q0.28125 -1.125 0.671875 -2.203125l2.078125 -5.640625l1.640625 0l-3.6875 9.828125q-0.59375 1.609375 -0.921875 2.203125q-0.4375 0.8125 -1.0 1.1875q-0.5625 0.375 -1.34375 0.375q-0.484375 0 -1.0625 -0.203125z" fill-rule="nonzero"/><path fill="#b7b7b7" d="m55.853264 137.64966l-1.09375 0l0 -6.96875q-0.40625 0.375 -1.046875 0.75q-0.640625 0.375 -1.140625 0.578125l0 -1.0625q0.90625 -0.4375 1.59375 -1.046875q0.6875 -0.609375 0.96875 -1.1875l0.71875 0l0 8.9375z" fill-rule="nonzero"/><path fill="#000000" fill-opacity="0.0" d="m32.884514 299.45932l36.88189 0l0 42.015747l-36.88189 0z" fill-rule="evenodd"/><path fill="#b7b7b7" d="m43.040764 330.09805l-0.1875 -1.53125q0.546875 0.140625 0.9375 0.140625q0.546875 0 0.875 -0.1875q0.328125 -0.171875 0.546875 -0.5q0.15625 -0.25 0.5 -1.21875q0.046875 -0.140625 0.140625 -0.40625l-3.671875 -9.6875l1.765625 0l2.015625 5.59375q0.390625 1.078125 0.703125 2.25q0.28125 -1.125 0.671875 -2.203125l2.078125 -5.640625l1.640625 0l-3.6875 9.828125q-0.59375 1.609375 -0.921875 2.203125q-0.4375 0.8125 -1.0 1.1875q-0.5625 0.375 -1.34375 0.375q-0.484375 0 -1.0625 -0.203125z" fill-rule="nonzero"/><path fill="#b7b7b7" d="m57.478264 332.33243l0 1.046875l-5.890625 0q-0.015625 -0.390625 0.125 -0.765625q0.234375 -0.59375 0.71875 -1.171875q0.5 -0.59375 1.4375 -1.359375q1.453125 -1.1875 1.953125 -1.875q0.515625 -0.703125 0.515625 -1.3125q0 -0.65625 -0.46875 -1.09375q-0.453125 -0.453125 -1.203125 -0.453125q-0.796875 0 -1.265625 0.46875q-0.46875 0.46875 -0.484375 1.3125l-1.125 -0.109375q0.125 -1.265625 0.875 -1.921875q0.75 -0.65625 2.015625 -0.65625q1.28125 0 2.03125 0.71875q0.75 0.703125 0.75 1.75q0 0.53125 -0.21875 1.046875q-0.21875 0.515625 -0.734375 1.09375q-0.5 0.5625 -1.671875 1.5625q-0.984375 0.828125 -1.265625 1.125q-0.28125 0.296875 -0.46875 0.59375l4.375 0z" fill-rule="nonzero"/></g></svg>