<svg version="1.1" viewBox="0.0 0.0 335.45669291338584 475.65616797900265" fill="none" stroke="none" stroke-linecap="square" stroke-miterlimit="10" xmlns:xlink="http://www.w3.org/1999/xlink" xmlns="http://www.w3.org/2000/svg"><clipPath id="p.0"><path d="m0 0l335.4567 0l0 475.65616l-335.4567 0l0 -475.65616z" clip-rule="nonzero"/></clipPath><g clip-path="url(#p.0)"><path fill="#000000" fill-opacity="0.0" d="m0 0l335.4567 0l0 475.65616l-335.4567 0z" fill-rule="evenodd"/><path fill="#000000" fill-opacity="0.0" d="m18.148403 33.781303c5.4806213 0.96635056 29.667282 -1.2327309 32.883728 5.7980995c3.2164497 7.0308304 -17.406036 28.835835 -13.585033 36.38689c3.8209991 7.5510635 33.16227 2.8119965 36.51104 8.9194565c3.3487778 6.1074677 -20.726833 20.158821 -16.418392 27.725334c4.3084373 7.5665207 37.00693 8.076813 42.269024 17.673767c5.2620926 9.596954 -14.8725815 31.418106 -10.696465 39.90799c4.1761093 8.489883 31.089218 2.5252838 35.753143 11.031311c4.663925 8.506027 -13.157639 30.760529 -7.7696 40.00482c5.388031 9.244308 35.43351 6.9542694 40.097816 15.460983c4.6642914 8.506699 -14.582016 27.28743 -12.11203 35.57924c2.4699707 8.29184 22.443237 11.809723 26.931885 14.171661" fill-rule="evenodd"/><path stroke="#000000" stroke-width="1.0" stroke-linejoin="round" stroke-linecap="butt" d="m18.148403 33.781303c5.4806213 0.96635056 29.667282 -1.2327309 32.883728 5.7980995c3.2164497 7.0308304 -17.406036 28.835835 -13.585033 36.38689c3.8209991 7.5510635 33.16227 2.8119965 36.51104 8.9194565c3.3487778 6.1074677 -20.726833 20.158821 -16.418392 27.725334c4.3084373 7.5665207 37.00693 8.076813 42.269024 17.673767c5.2620926 9.596954 -14.8725815 31.418106 -10.696465 39.90799c4.1761093 8.489883 31.089218 2.5252838 35.753143 11.031311c4.663925 8.506027 -13.157639 30.760529 -7.7696 40.00482c5.388031 9.244308 35.43351 6.9542694 40.097816 15.460983c4.6642914 8.506699 -14.582016 27.28743 -12.11203 35.57924c2.4699707 8.29184 22.443237 11.809723 26.931885 14.171661" fill-rule="evenodd"/><path fill="#cfe2f3" d="m159.6273 310.42783l0 0c0 -16.933838 13.72757 -30.661407 30.661407 -30.661407l0 0c8.131912 0 15.930771 3.2303772 21.680893 8.980499c5.7501373 5.7501526 8.98053 13.548981 8.98053 21.680908l0 0c0 16.933838 -13.727585 30.661407 -30.661423 30.661407l0 0c-16.933838 0 -30.661407 -13.72757 -30.661407 -30.661407z" fill-rule="evenodd"/><path stroke="#000000" stroke-width="1.0" stroke-linejoin="round" stroke-linecap="butt" d="m159.6273 310.42783l0 0c0 -16.933838 13.72757 -30.661407 30.661407 -30.661407l0 0c8.131912 0 15.930771 3.2303772 21.680893 8.980499c5.7501373 5.7501526 8.98053 13.548981 8.98053 21.680908l0 0c0 16.933838 -13.727585 30.661407 -30.661423 30.661407l0 0c-16.933838 0 -30.661407 -13.72757 -30.661407 -30.661407z" fill-rule="evenodd"/><path fill="#000000" d="m183.75269 317.3478l0 -9.671875l1.46875 0l0 1.359375q0.453125 -0.71875 1.203125 -1.140625q0.765625 -0.4375 1.71875 -0.4375q1.078125 0 1.765625 0.453125q0.6875 0.4375 0.96875 1.234375q1.15625 -1.6875 2.984375 -1.6875q1.453125 0 2.21875 0.796875q0.78125 0.796875 0.78125 2.453125l0 6.640625l-1.640625 0l0 -6.09375q0 -0.984375 -0.15625 -1.40625q-0.15625 -0.4375 -0.578125 -0.703125q-0.421875 -0.265625 -0.984375 -0.265625q-1.015625 0 -1.6875 0.6875q-0.671875 0.671875 -0.671875 2.15625l0 5.625l-1.640625 0l0 -6.28125q0 -1.09375 -0.40625 -1.640625q-0.40625 -0.546875 -1.3125 -0.546875q-0.6875 0 -1.28125 0.359375q-0.59375 0.359375 -0.859375 1.0625q-0.25 0.703125 -0.25 2.03125l0 5.015625l-1.640625 0z" fill-rule="nonzero"/><path fill="#000000" fill-opacity="0.0" d="m18.485565 34.446194l0 83.18111" fill-rule="evenodd"/><path stroke="#b7b7b7" stroke-width="1.0" stroke-linejoin="round" stroke-linecap="butt" stroke-dasharray="4.0,3.0" d="m18.485565 34.446194l0 83.18111" fill-rule="evenodd"/><path fill="#000000" fill-opacity="0.0" d="m18.485565 34.446194l39.496063 75.622055" fill-rule="evenodd"/><path stroke="#b7b7b7" stroke-width="1.0" stroke-linejoin="round" stroke-linecap="butt" stroke-dasharray="4.0,3.0" d="m18.485565 34.446194l39.496063 75.622055" fill-rule="evenodd"/><path fill="#000000" fill-opacity="0.0" d="m18.485565 79.81102l28.566929 0l0 42.015755l-28.566929 0z" fill-rule="evenodd"/><path fill="#000000" d="m28.329315 100.05914q0 -6.90625 4.34375 -6.90625q4.359375 0 4.359375 6.90625q0 6.890625 -4.359375 6.890625q-4.34375 0 -4.34375 -6.890625zm1.6875 -0.671875l5.328125 0q-0.09375 -2.84375 -0.828125 -3.859375q-0.734375 -1.03125 -1.859375 -1.03125q-2.546875 0 -2.640625 4.890625zm5.328125 1.328125l-5.328125 0q0.09375 4.890625 2.65625 4.890625q2.578125 0 2.671875 -4.890625z" fill-rule="nonzero"/><path fill="#000000" fill-opacity="0.0" d="m64.272964 14.278215l147.02362 247.84251" fill-rule="evenodd"/><path stroke="#cccccc" stroke-width="1.0" stroke-linejoin="round" stroke-linecap="butt" stroke-dasharray="4.0,3.0" d="m64.272964 14.278215l143.96243 242.68217" fill-rule="evenodd"/><path fill="#cccccc" stroke="#cccccc" stroke-width="1.0" stroke-linecap="butt" d="m206.81482 257.8031l3.7359161 3.0603027l-0.8947449 -4.7457275z" fill-rule="evenodd"/><path fill="#000000" fill-opacity="0.0" d="m140.30708 101.65879l28.566925 0l0 42.015755l-28.566925 0z" fill-rule="evenodd"/><path fill="#000000" d="m150.52583 128.5788l0 -9.671883l1.46875 0l0 1.46875q0.5625 -1.03125 1.03125 -1.359375q0.484375 -0.328125 1.0625 -0.328125q0.828125 0 1.6875 0.53125l-0.5625 1.515625q-0.609375 -0.359375 -1.203125 -0.359375q-0.546875 0 -0.96875 0.328125q-0.421875 0.328125 -0.609375 0.890625q-0.28125 0.875 -0.28125 1.921875l0 5.0625076l-1.625 0z" fill-rule="nonzero"/><path fill="#000000" fill-opacity="0.0" d="m103.69423 127.708664l28.566925 0l0 42.015747l-28.566925 0z" fill-rule="evenodd"/><path fill="#000000" d="m114.053604 154.62866l0 -13.359375l1.78125 0l0 11.78125l6.5625 0l0 1.578125l-8.34375 0z" fill-rule="nonzero"/><path fill="#000000" fill-opacity="0.0" d="m189.87401 351.17584l1.6692963 103.33859" fill-rule="evenodd"/><path stroke="#0000ff" stroke-width="1.0" stroke-linejoin="round" stroke-linecap="butt" d="m189.87401 351.17584l1.5723877 97.339386" fill-rule="evenodd"/><path fill="#0000ff" stroke="#0000ff" stroke-width="1.0" stroke-linecap="butt" d="m189.79488 448.5419l1.724823 4.5108337l1.5782166 -4.564209z" fill-rule="evenodd"/><path fill="#000000" fill-opacity="0.0" d="m140.30708 375.12335l58.803146 0l0 42.015747l-58.803146 0z" fill-rule="evenodd"/><path fill="#0000ff" d="m149.90083 398.02774l0 -1.640625l5.03125 0l0 1.640625l-5.03125 0zm12.333481 4.015625l0 -13.359375l9.015625 0l0 1.578125l-7.25 0l0 4.140625l6.265625 0l0 1.578125l-6.265625 0l0 6.0625l-1.765625 0z" fill-rule="nonzero"/><path fill="#0000ff" d="m177.22404 405.559l0 -1.046875l3.765625 -0.015625l0 3.3125q-0.859375 0.6875 -1.78125 1.046875q-0.921875 0.34375 -1.90625 0.34375q-1.296875 0 -2.375 -0.5625q-1.078125 -0.5625 -1.625 -1.625q-0.546875 -1.0625 -0.546875 -2.375q0 -1.296875 0.546875 -2.421875q0.546875 -1.140625 1.5625 -1.6875q1.03125 -0.546875 2.359375 -0.546875q0.953125 0 1.734375 0.328125q0.78125 0.3125 1.21875 0.875q0.453125 0.546875 0.6875 1.453125l-1.0625 0.28125q-0.203125 -0.671875 -0.5 -1.0625q-0.296875 -0.390625 -0.859375 -0.625q-0.546875 -0.234375 -1.21875 -0.234375q-0.8125 0 -1.40625 0.25q-0.578125 0.234375 -0.9375 0.640625q-0.359375 0.40625 -0.5625 0.890625q-0.34375 0.8125 -0.34375 1.78125q0 1.1875 0.40625 2.0q0.421875 0.796875 1.203125 1.1875q0.78125 0.390625 1.65625 0.390625q0.765625 0 1.484375 -0.296875q0.734375 -0.296875 1.125 -0.625l0 -1.65625l-2.625 0z" fill-rule="nonzero"/><path fill="#000000" fill-opacity="0.0" d="m228.51968 289.00787l84.0 -63.842514" fill-rule="evenodd"/><path stroke="#9900ff" stroke-width="1.0" stroke-linejoin="round" stroke-linecap="butt" d="m228.51968 289.00787l79.22308 -60.211914" fill-rule="evenodd"/><path fill="#9900ff" stroke="#9900ff" stroke-width="1.0" stroke-linecap="butt" d="m308.74225 230.11098l2.613556 -4.061035l-4.612488 1.4309692z" fill-rule="evenodd"/><path fill="#000000" fill-opacity="0.0" d="m248.67717 262.12073l50.425186 0l0 42.015747l-50.425186 0z" fill-rule="evenodd"/><path fill="#9900ff" d="m258.2709 285.02512l0 -1.640625l5.03125 0l0 1.640625l-5.03125 0zm12.333496 4.015625l0 -13.359375l9.015625 0l0 1.578125l-7.25 0l0 4.140625l6.265625 0l0 1.578125l-6.265625 0l0 6.0625l-1.765625 0z" fill-rule="nonzero"/><path fill="#9900ff" d="m281.42224 296.04074l0 -8.90625l3.078125 0q1.03125 0 1.578125 0.125q0.765625 0.1875 1.3125 0.640625q0.703125 0.59375 1.046875 1.53125q0.34375 0.921875 0.34375 2.109375q0 1.015625 -0.234375 1.796875q-0.234375 0.78125 -0.609375 1.296875q-0.359375 0.515625 -0.8125 0.8125q-0.4375 0.296875 -1.0625 0.453125q-0.609375 0.140625 -1.421875 0.140625l-3.21875 0zm1.1875 -1.046875l1.890625 0q0.890625 0 1.390625 -0.15625q0.5 -0.171875 0.796875 -0.46875q0.421875 -0.421875 0.65625 -1.125q0.234375 -0.71875 0.234375 -1.71875q0 -1.40625 -0.46875 -2.15625q-0.453125 -0.75 -1.109375 -1.0q-0.46875 -0.1875 -1.515625 -0.1875l-1.875 0l0 6.8125z" fill-rule="nonzero"/><path fill="#000000" fill-opacity="0.0" d="m149.79962 303.32l-70.843735 -92.445786" fill-rule="evenodd"/><path stroke="#38761d" stroke-width="1.0" stroke-linejoin="round" stroke-linecap="butt" d="m149.79962 303.32004l-67.19416 -87.683395" fill-rule="evenodd"/><path fill="#38761d" stroke="#38761d" stroke-width="1.0" stroke-linecap="butt" d="m83.9165 214.63196l-4.0713882 -2.5973663l1.4493103 4.606735z" fill-rule="evenodd"/><path fill="#000000" fill-opacity="0.0" d="m71.87747 256.26297l55.043358 0l0 41.99881l-55.043358 0z" fill-rule="evenodd"/><path fill="#38761d" d="m81.47122 279.16736l0 -1.640625l5.03125 0l0 1.640625l-5.03125 0zm12.333481 4.015625l0 -13.359375l9.015625 0l0 1.578125l-7.25 0l0 4.140625l6.265625 0l0 1.578125l-6.265625 0l0 6.0625l-1.765625 0z" fill-rule="nonzero"/><path fill="#38761d" d="m104.23193 287.3236l1.109375 -0.09375q0.078125 0.65625 0.359375 1.09375q0.296875 0.421875 0.90625 0.6875q0.609375 0.265625 1.359375 0.265625q0.671875 0 1.1875 -0.203125q0.515625 -0.203125 0.765625 -0.546875q0.265625 -0.34375 0.265625 -0.765625q0 -0.421875 -0.25 -0.734375q-0.234375 -0.3125 -0.796875 -0.515625q-0.359375 -0.140625 -1.59375 -0.4375q-1.21875 -0.296875 -1.71875 -0.5625q-0.625 -0.328125 -0.9375 -0.8125q-0.3125 -0.5 -0.3125 -1.109375q0 -0.6875 0.375 -1.265625q0.375 -0.59375 1.109375 -0.890625q0.75 -0.3125 1.640625 -0.3125q0.984375 0 1.734375 0.328125q0.765625 0.3125 1.171875 0.9375q0.40625 0.625 0.4375 1.40625l-1.125 0.078125q-0.09375 -0.84375 -0.625 -1.265625q-0.515625 -0.4375 -1.546875 -0.4375q-1.0625 0 -1.5625 0.390625q-0.484375 0.390625 -0.484375 0.9375q0 0.484375 0.34375 0.796875q0.34375 0.3125 1.78125 0.640625q1.4375 0.3125 1.96875 0.5625q0.78125 0.359375 1.140625 0.90625q0.375 0.546875 0.375 1.265625q0 0.71875 -0.40625 1.34375q-0.40625 0.625 -1.171875 0.984375q-0.75 0.34375 -1.703125 0.34375q-1.21875 0 -2.03125 -0.34375q-0.8125 -0.359375 -1.28125 -1.0625q-0.46875 -0.71875 -0.484375 -1.609375z" fill-rule="nonzero"/><path fill="#000000" fill-opacity="0.0" d="m109.23097 336.47244l-74.77165 -92.81889" fill-rule="evenodd"/><path stroke="#b45f06" stroke-width="1.0" stroke-linejoin="round" stroke-linecap="butt" d="m109.23097 336.47244l-71.00765 -88.14639" fill-rule="evenodd"/><path fill="#b45f06" stroke="#b45f06" stroke-width="1.0" stroke-linecap="butt" d="m39.50961 247.28986l-4.13319 -2.4978485l1.5606155 4.570221z" fill-rule="evenodd"/><path fill="#000000" fill-opacity="0.0" d="m34.459316 289.00787l54.582676 0l0 42.015747l-54.582676 0z" fill-rule="evenodd"/><path fill="#b45f06" d="m44.053066 311.91226l0 -1.640625l5.03125 0l0 1.640625l-5.03125 0zm12.333481 4.015625l0 -13.359375l9.015629 0l0 1.578125l-7.250004 0l0 4.140625l6.265629 0l0 1.578125l-6.265629 0l0 6.0625l-1.765625 0z" fill-rule="nonzero"/><path fill="#b45f06" d="m67.23566 322.9279l0 -8.90625l3.9375 0q1.1875 0 1.8125 0.25q0.625 0.234375 0.984375 0.84375q0.375 0.609375 0.375 1.34375q0 0.9375 -0.609375 1.59375q-0.609375 0.640625 -1.890625 0.828125q0.46875 0.21875 0.703125 0.4375q0.515625 0.46875 0.984375 1.1875l1.546875 2.421875l-1.484375 0l-1.171875 -1.859375q-0.53125 -0.796875 -0.859375 -1.21875q-0.328125 -0.421875 -0.59375 -0.59375q-0.265625 -0.171875 -0.546875 -0.234375q-0.1875 -0.046875 -0.65625 -0.046875l-1.359375 0l0 3.953125l-1.171875 0zm1.171875 -4.96875l2.53125 0q0.8125 0 1.265625 -0.171875q0.453125 -0.171875 0.6875 -0.53125q0.234375 -0.375 0.234375 -0.796875q0 -0.640625 -0.453125 -1.046875q-0.453125 -0.40625 -1.453125 -0.40625l-2.8125 0l0 2.953125z" fill-rule="nonzero"/></g></svg>