<svg version="1.1" viewBox="0.0 0.0 960.0 720.0" fill="none" stroke="none" stroke-linecap="square" stroke-miterlimit="10" xmlns:xlink="http://www.w3.org/1999/xlink" xmlns="http://www.w3.org/2000/svg"><clipPath id="p.0"><path d="m0 0l960.0 0l0 720.0l-960.0 0l0 -720.0z" clip-rule="nonzero"/></clipPath><g clip-path="url(#p.0)"><path fill="#000000" fill-opacity="0.0" d="m0 0l960.0 0l0 720.0l-960.0 0z" fill-rule="evenodd"/><path fill="#000000" fill-opacity="0.0" d="m182.36157 67.86551l178.77167 161.76378" fill-rule="evenodd"/><path stroke="#000000" stroke-width="1.0" stroke-linejoin="round" stroke-linecap="butt" d="m182.36157 67.86551l178.77167 161.76378" fill-rule="evenodd"/><path fill="#cccccc" d="m349.21915 258.3924l0 0c0 -22.465378 18.211792 -40.67717 40.677185 -40.67717l0 0c10.788239 0 21.134644 4.285614 28.763092 11.9140625c7.6284485 7.6284485 11.9140625 17.974838 11.9140625 28.763107l0 0c0 22.465363 -18.211792 40.677155 -40.677155 40.677155l0 0c-22.465393 0 -40.677185 -18.211792 -40.677185 -40.677155z" fill-rule="evenodd"/><path fill="#000000" d="m378.17245 265.31238l0 -9.67186l1.46875 0l0 1.3593597q0.453125 -0.71875 1.203125 -1.1406097q0.765625 -0.4375 1.71875 -0.4375q1.078125 0 1.765625 0.453125q0.6875 0.43748474 0.96875 1.2343597q1.15625 -1.6874847 2.984375 -1.6874847q1.453125 0 2.21875 0.79685974q0.78125 0.796875 0.78125 2.453125l0 6.640625l-1.640625 0l0 -6.09375q0 -0.984375 -0.15625 -1.40625q-0.15625 -0.4375 -0.578125 -0.703125q-0.421875 -0.265625 -0.984375 -0.265625q-1.015625 0 -1.6875 0.6875q-0.671875 0.671875 -0.671875 2.15625l0 5.625l-1.640625 0l0 -6.28125q0 -1.09375 -0.40625 -1.640625q-0.40625 -0.546875 -1.3125 -0.546875q-0.6875 0 -1.28125 0.359375q-0.59375 0.359375 -0.859375 1.0625q-0.25 0.703125 -0.25 2.03125l0 5.015625l-1.640625 0zm21.259552 0l-1.640625 0l0 -10.45311q-0.59375 0.5625 -1.5625 1.140625q-0.953125 0.56248474 -1.71875 0.84373474l0 -1.5937347q1.375 -0.640625 2.40625 -1.5625q1.03125 -0.921875 1.453125 -1.78125l1.0625 0l0 13.406235z" fill-rule="nonzero"/><path fill="#cccccc" d="m582.4344 477.7546l0 0c0 -22.465393 18.211792 -40.677185 40.677185 -40.677185l0 0c10.788208 0 21.134644 4.285614 28.763062 11.9140625c7.628479 7.6284485 11.9140625 17.974854 11.9140625 28.763123l0 0c0 22.465363 -18.211792 40.677155 -40.677124 40.677155l0 0c-22.465393 0 -40.677185 -18.211792 -40.677185 -40.677155z" fill-rule="evenodd"/><path fill="#000000" d="m611.38763 484.6746l0 -9.671875l1.46875 0l0 1.359375q0.453125 -0.71875 1.203125 -1.140625q0.765625 -0.4375 1.71875 -0.4375q1.078125 0 1.765625 0.453125q0.6875 0.4375 0.96875 1.234375q1.15625 -1.6875 2.984375 -1.6875q1.453125 0 2.21875 0.796875q0.78125 0.796875 0.78125 2.453125l0 6.640625l-1.640625 0l0 -6.09375q0 -0.984375 -0.15625 -1.40625q-0.15625 -0.4375 -0.578125 -0.703125q-0.421875 -0.265625 -0.984375 -0.265625q-1.015625 0 -1.6875 0.6875q-0.671875 0.671875 -0.671875 2.15625l0 5.625l-1.640625 0l0 -6.28125q0 -1.09375 -0.40625 -1.640625q-0.40625 -0.546875 -1.3125 -0.546875q-0.6875 0 -1.28125 0.359375q-0.59375 0.359375 -0.859375 1.0625q-0.25 0.703125 -0.25 2.03125l0 5.015625l-1.640625 0zm23.697083 -1.578125l0 1.578125l-8.828125 0q-0.015625 -0.59375 0.1875 -1.140625q0.34375 -0.90625 1.078125 -1.78125q0.75 -0.875 2.15625 -2.015625q2.171875 -1.78125 2.9375 -2.828125q0.765625 -1.046875 0.765625 -1.96875q0 -0.984375 -0.703125 -1.640625q-0.6875 -0.671875 -1.8125 -0.671875q-1.1875 0 -1.90625 0.71875q-0.703125 0.703125 -0.703125 1.953125l-1.6875 -0.171875q0.171875 -1.890625 1.296875 -2.875q1.140625 -0.984375 3.03125 -0.984375q1.921875 0 3.046875 1.0625q1.125 1.0625 1.125 2.640625q0 0.796875 -0.328125 1.578125q-0.328125 0.78125 -1.09375 1.640625q-0.75 0.84375 -2.53125 2.34375q-1.46875 1.234375 -1.890625 1.6875q-0.421875 0.4375 -0.6875 0.875l6.546875 0z" fill-rule="nonzero"/><path fill="#000000" fill-opacity="0.0" d="m418.65942 287.1555l175.68506 161.82678" fill-rule="evenodd"/><path stroke="#000000" stroke-width="1.0" stroke-linejoin="round" stroke-linecap="butt" d="m418.65942 287.1555l175.68506 161.82678" fill-rule="evenodd"/><path fill="#000000" fill-opacity="0.0" d="m434.31366 219.44226l83.08661 -75.27559" fill-rule="evenodd"/><path stroke="#9900ff" stroke-width="1.0" stroke-linejoin="round" stroke-linecap="butt" d="m434.31366 219.44226l78.64014 -71.247116" fill-rule="evenodd"/><path fill="#9900ff" stroke="#9900ff" stroke-width="1.0" stroke-linecap="butt" d="m514.06274 149.41922l2.2541504 -4.2710114l-4.4721375 1.8228607z" fill-rule="evenodd"/><path fill="#000000" fill-opacity="0.0" d="m670.5656 435.78873l88.25195 -81.35434" fill-rule="evenodd"/><path stroke="#9900ff" stroke-width="1.0" stroke-linejoin="round" stroke-linecap="butt" d="m670.5656 435.78873l83.840454 -77.28763" fill-rule="evenodd"/><path fill="#9900ff" stroke="#9900ff" stroke-width="1.0" stroke-linecap="butt" d="m755.5256 359.71558l2.217163 -4.290344l-4.456238 1.8614502z" fill-rule="evenodd"/><path fill="#000000" fill-opacity="0.0" d="m494.677 160.7979l135.08661 0l0 42.015747l-135.08661 0z" fill-rule="evenodd"/><path fill="#9900ff" d="m505.20825 187.7179l0 -13.359375l9.015625 0l0 1.578125l-7.25 0l0 4.140625l6.265625 0l0 1.578125l-6.265625 0l0 6.0625l-1.765625 0z" fill-rule="nonzero"/><path fill="#9900ff" d="m516.0261 194.7179l0 -8.90625l3.078125 0q1.03125 0 1.578125 0.125q0.765625 0.1875 1.3125 0.640625q0.703125 0.59375 1.046875 1.53125q0.34375 0.921875 0.34375 2.109375q0 1.015625 -0.234375 1.796875q-0.234375 0.78125 -0.609375 1.296875q-0.359375 0.515625 -0.8125 0.8125q-0.4375 0.296875 -1.0625 0.453125q-0.609375 0.140625 -1.421875 0.140625l-3.21875 0zm1.1875 -1.046875l1.890625 0q0.890625 0 1.390625 -0.15625q0.5 -0.171875 0.796875 -0.46875q0.421875 -0.421875 0.65625 -1.125q0.234375 -0.71875 0.234375 -1.71875q0 -1.40625 -0.46875 -2.15625q-0.453125 -0.75 -1.109375 -1.0q-0.46875 -0.1875 -1.515625 -0.1875l-1.875 0l0 6.8125zm11.481812 1.046875l-1.09375 0l0 -6.96875q-0.40625 0.375 -1.046875 0.75q-0.640625 0.375 -1.140625 0.578125l0 -1.0625q0.90625 -0.4375 1.59375 -1.046875q0.6875 -0.609375 0.96875 -1.1875l0.71875 0l0 8.9375z" fill-rule="nonzero"/><path fill="#9900ff" d="m546.0145 179.85852l-8.828125 0l0 -1.515625l8.828125 0l0 1.515625zm0 4.0625l-8.828125 0l0 -1.53125l8.828125 0l0 1.53125zm6.812622 -0.21875l0 -1.640625l5.03125 0l0 1.640625l-5.03125 0zm8.3533325 4.015625l-1.515625 0l0 -13.359375l1.640625 0l0 4.765625q1.046875 -1.296875 2.65625 -1.296875q0.890625 0 1.6875 0.359375q0.796875 0.359375 1.3125 1.015625q0.515625 0.640625 0.796875 1.5625q0.296875 0.921875 0.296875 1.96875q0 2.484375 -1.234375 3.84375q-1.21875 1.359375 -2.953125 1.359375q-1.703125 0 -2.6875 -1.4375l0 1.21875zm-0.015625 -4.90625q0 1.734375 0.484375 2.515625q0.765625 1.265625 2.09375 1.265625q1.078125 0 1.859375 -0.9375q0.78125 -0.9375 0.78125 -2.78125q0 -1.890625 -0.75 -2.796875q-0.75 -0.90625 -1.828125 -0.90625q-1.0625 0 -1.859375 0.9375q-0.78125 0.9375 -0.78125 2.703125z" fill-rule="nonzero"/><path fill="#9900ff" d="m573.46246 194.7179l-1.09375 0l0 -6.96875q-0.40625 0.375 -1.046875 0.75q-0.640625 0.375 -1.140625 0.578125l0 -1.0625q0.90625 -0.4375 1.59375 -1.046875q0.6875 -0.609375 0.96875 -1.1875l0.71875 0l0 8.9375z" fill-rule="nonzero"/><path fill="#9900ff" d="m579.6607 187.7179l-3.6875 -9.671875l1.734375 0l2.078125 5.796875q0.328125 0.9375 0.625 1.9375q0.203125 -0.765625 0.609375 -1.828125l2.140625 -5.90625l1.6875 0l-3.65625 9.671875l-1.53125 0z" fill-rule="nonzero"/><path fill="#9900ff" d="m589.7076 194.7179l-1.09375 0l0 -6.96875q-0.40625 0.375 -1.046875 0.75q-0.640625 0.375 -1.140625 0.578125l0 -1.0625q0.90625 -0.4375 1.59375 -1.046875q0.6875 -0.609375 0.96875 -1.1875l0.71875 0l0 8.9375z" fill-rule="nonzero"/><path fill="#000000" fill-opacity="0.0" d="m743.27795 373.67453l130.77167 0l0 42.015747l-130.77167 0z" fill-rule="evenodd"/><path fill="#9900ff" d="m753.8092 400.59454l0 -13.359375l9.015625 0l0 1.578125l-7.25 0l0 4.140625l6.265625 0l0 1.578125l-6.265625 0l0 6.0625l-1.765625 0z" fill-rule="nonzero"/><path fill="#9900ff" d="m764.6271 407.59454l0 -8.90625l3.078125 0q1.03125 0 1.578125 0.125q0.765625 0.1875 1.3125 0.640625q0.703125 0.59375 1.046875 1.53125q0.34375 0.921875 0.34375 2.109375q0 1.015625 -0.234375 1.796875q-0.234375 0.78125 -0.609375 1.296875q-0.359375 0.515625 -0.8125 0.8125q-0.4375 0.296875 -1.0625 0.453125q-0.609375 0.140625 -1.421875 0.140625l-3.21875 0zm1.1875 -1.046875l1.890625 0q0.890625 0 1.390625 -0.15625q0.5 -0.171875 0.796875 -0.46875q0.421875 -0.421875 0.65625 -1.125q0.234375 -0.71875 0.234375 -1.71875q0 -1.40625 -0.46875 -2.15625q-0.453125 -0.75 -1.109375 -1.0q-0.46875 -0.1875 -1.515625 -0.1875l-1.875 0l0 6.8125zm13.106812 0l0 1.046875l-5.890625 0q-0.015625 -0.390625 0.125 -0.765625q0.234375 -0.59375 0.71875 -1.171875q0.5 -0.59375 1.4375 -1.359375q1.453125 -1.1875 1.953125 -1.875q0.515625 -0.703125 0.515625 -1.3125q0 -0.65625 -0.46875 -1.09375q-0.453125 -0.453125 -1.203125 -0.453125q-0.796875 0 -1.265625 0.46875q-0.46875 0.46875 -0.484375 1.3125l-1.125 -0.109375q0.125 -1.265625 0.875 -1.921875q0.75 -0.65625 2.015625 -0.65625q1.28125 0 2.03125 0.71875q0.75 0.703125 0.75 1.75q0 0.53125 -0.21875 1.046875q-0.21875 0.515625 -0.734375 1.09375q-0.5 0.5625 -1.671875 1.5625q-0.984375 0.828125 -1.265625 1.125q-0.28125 0.296875 -0.46875 0.59375l4.375 0z" fill-rule="nonzero"/><path fill="#9900ff" d="m792.88763 392.73517l-8.828125 0l0 -1.515625l8.828125 0l0 1.515625zm0 4.0625l-8.828125 0l0 -1.53125l8.828125 0l0 1.53125zm6.812622 -0.21875l0 -1.640625l5.03125 0l0 1.640625l-5.03125 0zm8.3533325 4.015625l-1.515625 0l0 -13.359375l1.640625 0l0 4.765625q1.046875 -1.296875 2.65625 -1.296875q0.890625 0 1.6875 0.359375q0.796875 0.359375 1.3125 1.015625q0.515625 0.640625 0.796875 1.5625q0.296875 0.921875 0.296875 1.96875q0 2.484375 -1.234375 3.84375q-1.21875 1.359375 -2.953125 1.359375q-1.703125 0 -2.6875 -1.4375l0 1.21875zm-0.015625 -4.90625q0 1.734375 0.484375 2.515625q0.765625 1.265625 2.09375 1.265625q1.078125 0 1.859375 -0.9375q0.78125 -0.9375 0.78125 -2.78125q0 -1.890625 -0.75 -2.796875q-0.75 -0.90625 -1.828125 -0.90625q-1.0625 0 -1.859375 0.9375q-0.78125 0.9375 -0.78125 2.703125z" fill-rule="nonzero"/><path fill="#9900ff" d="m821.9606 406.54767l0 1.046875l-5.890625 0q-0.015625 -0.390625 0.125 -0.765625q0.234375 -0.59375 0.71875 -1.171875q0.5 -0.59375 1.4375 -1.359375q1.453125 -1.1875 1.953125 -1.875q0.515625 -0.703125 0.515625 -1.3125q0 -0.65625 -0.46875 -1.09375q-0.453125 -0.453125 -1.203125 -0.453125q-0.796875 0 -1.265625 0.46875q-0.46875 0.46875 -0.484375 1.3125l-1.125 -0.109375q0.125 -1.265625 0.875 -1.921875q0.75 -0.65625 2.015625 -0.65625q1.28125 0 2.03125 0.71875q0.75 0.703125 0.75 1.75q0 0.53125 -0.21875 1.046875q-0.21875 0.515625 -0.734375 1.09375q-0.5 0.5625 -1.671875 1.5625q-0.984375 0.828125 -1.265625 1.125q-0.28125 0.296875 -0.46875 0.59375l4.375 0z" fill-rule="nonzero"/><path fill="#9900ff" d="m826.5338 400.59454l-3.6875 -9.671875l1.734375 0l2.078125 5.796875q0.328125 0.9375 0.625 1.9375q0.203125 -0.765625 0.609375 -1.828125l2.140625 -5.90625l1.6875 0l-3.65625 9.671875l-1.53125 0z" fill-rule="nonzero"/><path fill="#9900ff" d="m838.2057 406.54767l0 1.046875l-5.890625 0q-0.015625 -0.390625 0.125 -0.765625q0.234375 -0.59375 0.71875 -1.171875q0.5 -0.59375 1.4375 -1.359375q1.453125 -1.1875 1.953125 -1.875q0.515625 -0.703125 0.515625 -1.3125q0 -0.65625 -0.46875 -1.09375q-0.453125 -0.453125 -1.203125 -0.453125q-0.796875 0 -1.265625 0.46875q-0.46875 0.46875 -0.484375 1.3125l-1.125 -0.109375q0.125 -1.265625 0.875 -1.921875q0.75 -0.65625 2.015625 -0.65625q1.28125 0 2.03125 0.71875q0.75 0.703125 0.75 1.75q0 0.53125 -0.21875 1.046875q-0.21875 0.515625 -0.734375 1.09375q-0.5 0.5625 -1.671875 1.5625q-0.984375 0.828125 -1.265625 1.125q-0.28125 0.296875 -0.46875 0.59375l4.375 0z" fill-rule="nonzero"/><path fill="#000000" fill-opacity="0.0" d="m528.7507 589.6221l153.16534 0l0 42.015747l-153.16534 0z" fill-rule="evenodd"/><path fill="#4a86e8" d="m539.2819 616.54205l0 -13.359375l9.015625 0l0 1.578125l-7.25 0l0 4.140625l6.265625 0l0 1.578125l-6.265625 0l0 6.0625l-1.765625 0z" fill-rule="nonzero"/><path fill="#4a86e8" d="m554.2716 620.0577l0 -1.046875l3.765625 -0.015625l0 3.3125q-0.859375 0.6875 -1.78125 1.046875q-0.921875 0.34375 -1.90625 0.34375q-1.296875 0 -2.375 -0.5625q-1.078125 -0.5625 -1.625 -1.625q-0.546875 -1.0625 -0.546875 -2.375q0 -1.296875 0.546875 -2.421875q0.546875 -1.140625 1.5625 -1.6875q1.03125 -0.546875 2.359375 -0.546875q0.953125 0 1.734375 0.328125q0.78125 0.3125 1.21875 0.875q0.453125 0.546875 0.6875 1.453125l-1.0625 0.28125q-0.203125 -0.671875 -0.5 -1.0625q-0.296875 -0.390625 -0.859375 -0.625q-0.546875 -0.234375 -1.21875 -0.234375q-0.8125 0 -1.40625 0.25q-0.578125 0.234375 -0.9375 0.640625q-0.359375 0.40625 -0.5625 0.890625q-0.34375 0.8125 -0.34375 1.78125q0 1.1875 0.40625 2.0q0.421875 0.796875 1.203125 1.1875q0.78125 0.390625 1.65625 0.390625q0.765625 0 1.484375 -0.296875q0.734375 -0.296875 1.125 -0.625l0 -1.65625l-2.625 0zm10.814758 2.4375l0 1.046875l-5.890625 0q-0.015625 -0.390625 0.125 -0.765625q0.234375 -0.59375 0.71875 -1.171875q0.5 -0.59375 1.4375 -1.359375q1.453125 -1.1875 1.953125 -1.875q0.515625 -0.703125 0.515625 -1.3125q0 -0.65625 -0.46875 -1.09375q-0.453125 -0.453125 -1.203125 -0.453125q-0.796875 0 -1.265625 0.46875q-0.46875 0.46875 -0.484375 1.3125l-1.125 -0.109375q0.125 -1.265625 0.875 -1.921875q0.75 -0.65625 2.015625 -0.65625q1.28125 0 2.03125 0.71875q0.75 0.703125 0.75 1.75q0 0.53125 -0.21875 1.046875q-0.21875 0.515625 -0.734375 1.09375q-0.5 0.5625 -1.671875 1.5625q-0.984375 0.828125 -1.265625 1.125q-0.28125 0.296875 -0.46875 0.59375l4.375 0z" fill-rule="nonzero"/><path fill="#4a86e8" d="m575.59717 608.6827l-8.828125 0l0 -1.515625l8.828125 0l0 1.515625zm0 4.0625l-8.828125 0l0 -1.53125l8.828125 0l0 1.53125zm2.2699585 3.796875l0 -9.671875l1.46875 0l0 1.359375q0.453125 -0.71875 1.203125 -1.140625q0.765625 -0.4375 1.71875 -0.4375q1.078125 0 1.765625 0.453125q0.6875 0.4375 0.96875 1.234375q1.15625 -1.6875 2.984375 -1.6875q1.453125 0 2.21875 0.796875q0.78125 0.796875 0.78125 2.453125l0 6.640625l-1.640625 0l0 -6.09375q0 -0.984375 -0.15625 -1.40625q-0.15625 -0.4375 -0.578125 -0.703125q-0.421875 -0.265625 -0.984375 -0.265625q-1.015625 0 -1.6875 0.6875q-0.671875 0.671875 -0.671875 2.15625l0 5.625l-1.640625 0l0 -6.28125q0 -1.09375 -0.40625 -1.640625q-0.40625 -0.546875 -1.3125 -0.546875q-0.6875 0 -1.28125 0.359375q-0.59375 0.359375 -0.859375 1.0625q-0.25 0.703125 -0.25 2.03125l0 5.015625l-1.640625 0z" fill-rule="nonzero"/><path fill="#4a86e8" d="m598.4392 622.4952l0 1.046875l-5.890625 0q-0.015625 -0.390625 0.125 -0.765625q0.234375 -0.59375 0.71875 -1.171875q0.5 -0.59375 1.4375 -1.359375q1.453125 -1.1875 1.953125 -1.875q0.515625 -0.703125 0.515625 -1.3125q0 -0.65625 -0.46875 -1.09375q-0.453125 -0.453125 -1.203125 -0.453125q-0.796875 0 -1.265625 0.46875q-0.46875 0.46875 -0.484375 1.3125l-1.125 -0.109375q0.125 -1.265625 0.875 -1.921875q0.75 -0.65625 2.015625 -0.65625q1.28125 0 2.03125 0.71875q0.75 0.703125 0.75 1.75q0 0.53125 -0.21875 1.046875q-0.21875 0.515625 -0.734375 1.09375q-0.5 0.5625 -1.671875 1.5625q-0.984375 0.828125 -1.265625 1.125q-0.28125 0.296875 -0.46875 0.59375l4.375 0z" fill-rule="nonzero"/><path fill="#4a86e8" d="m600.01245 617.3389l1.59375 0.234375q0.109375 0.75 0.5625 1.078125q0.609375 0.453125 1.671875 0.453125q1.140625 0 1.75 -0.453125q0.625 -0.453125 0.84375 -1.265625q0.125 -0.5 0.109375 -2.109375q-1.0625 1.265625 -2.671875 1.265625q-2.0 0 -3.09375 -1.4375q-1.09375 -1.4375 -1.09375 -3.453125q0 -1.390625 0.5 -2.5625q0.515625 -1.171875 1.453125 -1.796875q0.953125 -0.640625 2.25 -0.640625q1.703125 0 2.8125 1.375l0 -1.15625l1.515625 0l0 8.359375q0 2.265625 -0.46875 3.203125q-0.453125 0.9375 -1.453125 1.484375q-0.984375 0.546875 -2.453125 0.546875q-1.71875 0 -2.796875 -0.78125q-1.0625 -0.765625 -1.03125 -2.34375zm1.359375 -5.8125q0 1.90625 0.75 2.78125q0.765625 0.875 1.90625 0.875q1.125 0 1.890625 -0.859375q0.765625 -0.875 0.765625 -2.734375q0 -1.78125 -0.796875 -2.671875q-0.78125 -0.90625 -1.890625 -0.90625q-1.09375 0 -1.859375 0.890625q-0.765625 0.875 -0.765625 2.625zm13.855896 2.125l1.625 -0.25q0.125 0.96875 0.75 1.5q0.625 0.515625 1.75 0.515625q1.125 0 1.671875 -0.453125q0.546875 -0.46875 0.546875 -1.09375q0 -0.546875 -0.484375 -0.875q-0.328125 -0.21875 -1.671875 -0.546875q-1.8125 -0.46875 -2.515625 -0.796875q-0.6875 -0.328125 -1.046875 -0.90625q-0.359375 -0.59375 -0.359375 -1.3125q0 -0.640625 0.296875 -1.1875q0.296875 -0.5625 0.8125 -0.921875q0.375 -0.28125 1.03125 -0.46875q0.671875 -0.203125 1.421875 -0.203125q1.140625 0 2.0 0.328125q0.859375 0.328125 1.265625 0.890625q0.421875 0.5625 0.578125 1.5l-1.609375 0.21875q-0.109375 -0.75 -0.640625 -1.171875q-0.515625 -0.421875 -1.46875 -0.421875q-1.140625 0 -1.625 0.375q-0.46875 0.375 -0.46875 0.875q0 0.3125 0.1875 0.578125q0.203125 0.265625 0.640625 0.4375q0.234375 0.09375 1.4375 0.421875q1.75 0.453125 2.4375 0.75q0.6875 0.296875 1.078125 0.859375q0.390625 0.5625 0.390625 1.40625q0 0.828125 -0.484375 1.546875q-0.46875 0.71875 -1.375 1.125q-0.90625 0.390625 -2.046875 0.390625q-1.875 0 -2.875 -0.78125q-0.984375 -0.78125 -1.25 -2.328125zm9.984375 -8.578125l0 -1.890625l1.640625 0l0 1.890625l-1.640625 0zm0 11.46875l0 -9.671875l1.640625 0l0 9.671875l-1.640625 0zm4.1448364 0l0 -9.671875l1.46875 0l0 1.375q1.0625 -1.59375 3.078125 -1.59375q0.875 0 1.609375 0.3125q0.734375 0.3125 1.09375 0.828125q0.375 0.5 0.515625 1.203125q0.09375 0.453125 0.09375 1.59375l0 5.953125l-1.640625 0l0 -5.890625q0 -1.0 -0.203125 -1.484375q-0.1875 -0.5 -0.671875 -0.796875q-0.484375 -0.296875 -1.140625 -0.296875q-1.046875 0 -1.8125 0.671875q-0.75 0.65625 -0.75 2.515625l0 5.28125l-1.640625 0zm13.500732 3.921875q-1.359375 -1.703125 -2.296875 -4.0q-0.9375 -2.296875 -0.9375 -4.765625q0 -2.15625 0.703125 -4.140625q0.828125 -2.3125 2.53125 -4.59375l1.171875 0q-1.09375 1.890625 -1.453125 2.703125q-0.546875 1.25 -0.875 2.625q-0.390625 1.703125 -0.390625 3.421875q0 4.375 2.71875 8.75l-1.171875 0z" fill-rule="nonzero"/><path fill="#4a86e8" d="m648.0547 616.7452q-1.140625 0 -1.921875 -1.015625q-0.765625 -1.015625 -0.765625 -2.46875q0 -1.3125 0.390625 -2.84375q0.390625 -1.546875 1.09375 -3.0q0.71875 -1.46875 1.90625 -2.4375q1.203125 -0.96875 2.609375 -0.96875q1.5 0 2.140625 1.046875q0.65625 1.03125 0.65625 2.625q0 1.28125 -0.40625 2.8125q-0.40625 1.515625 -1.15625 2.953125q-0.734375 1.421875 -1.9375 2.359375q-1.203125 0.9375 -2.609375 0.9375zm4.15625 -6.875q0.390625 -1.609375 0.390625 -3.21875q0 -0.609375 -0.0625 -1.03125q-0.0625 -0.421875 -0.390625 -0.796875q-0.3125 -0.390625 -0.890625 -0.390625q-2.3125 0 -3.671875 5.4375l4.625 0zm-0.109375 0.4375l-4.625 0q-0.546875 2.125 -0.546875 3.796875q0 2.21875 1.21875 2.21875q2.46875 0 3.953125 -6.015625z" fill-rule="nonzero"/><path fill="#4a86e8" d="m660.92035 622.4952l0 1.046875l-5.890625 0q-0.015625 -0.390625 0.125 -0.765625q0.234375 -0.59375 0.71875 -1.171875q0.5 -0.59375 1.4375 -1.359375q1.453125 -1.1875 1.953125 -1.875q0.515625 -0.703125 0.515625 -1.3125q0 -0.65625 -0.46875 -1.09375q-0.453125 -0.453125 -1.203125 -0.453125q-0.796875 0 -1.265625 0.46875q-0.46875 0.46875 -0.484375 1.3125l-1.125 -0.109375q0.125 -1.265625 0.875 -1.921875q0.75 -0.65625 2.015625 -0.65625q1.28125 0 2.03125 0.71875q0.75 0.703125 0.75 1.75q0 0.53125 -0.21875 1.046875q-0.21875 0.515625 -0.734375 1.09375q-0.5 0.5625 -1.671875 1.5625q-0.984375 0.828125 -1.265625 1.125q-0.28125 0.296875 -0.46875 0.59375l4.375 0z" fill-rule="nonzero"/><path fill="#4a86e8" d="m663.8843 620.4639l-1.1875 0q2.734375 -4.375 2.734375 -8.75q0 -1.71875 -0.390625 -3.390625q-0.3125 -1.375 -0.875 -2.625q-0.359375 -0.828125 -1.46875 -2.734375l1.1875 0q1.703125 2.28125 2.53125 4.59375q0.6875 1.984375 0.6875 4.140625q0 2.46875 -0.9375 4.765625q-0.9375 2.296875 -2.28125 4.0z" fill-rule="nonzero"/><path fill="#000000" fill-opacity="0.0" d="m169.95538 284.6063l146.89764 0l0 42.015747l-146.89764 0z" fill-rule="evenodd"/><path fill="#4a86e8" d="m180.48663 311.5263l0 -13.359375l9.015625 0l0 1.578125l-7.25 0l0 4.140625l6.265625 0l0 1.578125l-6.265625 0l0 6.0625l-1.765625 0z" fill-rule="nonzero"/><path fill="#4a86e8" d="m195.47636 315.04193l0 -1.046875l3.765625 -0.015625l0 3.3125q-0.859375 0.6875 -1.78125 1.046875q-0.921875 0.34375 -1.90625 0.34375q-1.296875 0 -2.375 -0.5625q-1.078125 -0.5625 -1.625 -1.625q-0.546875 -1.0625 -0.546875 -2.375q0 -1.296875 0.546875 -2.421875q0.546875 -1.140625 1.5625 -1.6875q1.03125 -0.546875 2.359375 -0.546875q0.953125 0 1.734375 0.328125q0.78125 0.3125 1.21875 0.875q0.453125 0.546875 0.6875 1.453125l-1.0625 0.28125q-0.203125 -0.671875 -0.5 -1.0625q-0.296875 -0.390625 -0.859375 -0.625q-0.546875 -0.234375 -1.21875 -0.234375q-0.8125 0 -1.40625 0.25q-0.578125 0.234375 -0.9375 0.640625q-0.359375 0.40625 -0.5625 0.890625q-0.34375 0.8125 -0.34375 1.78125q0 1.1875 0.40625 2.0q0.421875 0.796875 1.203125 1.1875q0.78125 0.390625 1.65625 0.390625q0.765625 0 1.484375 -0.296875q0.734375 -0.296875 1.125 -0.625l0 -1.65625l-2.625 0zm9.189758 3.484375l-1.09375 0l0 -6.96875q-0.40625 0.375 -1.046875 0.75q-0.640625 0.375 -1.140625 0.578125l0 -1.0625q0.90625 -0.4375 1.59375 -1.046875q0.6875 -0.609375 0.96875 -1.1875l0.71875 0l0 8.9375z" fill-rule="nonzero"/><path fill="#4a86e8" d="m216.80191 303.66693l-8.828125 0l0 -1.515625l8.828125 0l0 1.515625zm0 4.0625l-8.828125 0l0 -1.53125l8.828125 0l0 1.53125zm2.2699585 3.796875l0 -9.671875l1.46875 0l0 1.359375q0.453125 -0.71875 1.203125 -1.140625q0.765625 -0.4375 1.71875 -0.4375q1.078125 0 1.765625 0.453125q0.6875 0.4375 0.96875 1.234375q1.15625 -1.6875 2.984375 -1.6875q1.453125 0 2.21875 0.796875q0.78125 0.796875 0.78125 2.453125l0 6.640625l-1.640625 0l0 -6.09375q0 -0.984375 -0.15625 -1.40625q-0.15625 -0.4375 -0.578125 -0.703125q-0.421875 -0.265625 -0.984375 -0.265625q-1.015625 0 -1.6875 0.6875q-0.671875 0.671875 -0.671875 2.15625l0 5.625l-1.640625 0l0 -6.28125q0 -1.09375 -0.40625 -1.640625q-0.40625 -0.546875 -1.3125 -0.546875q-0.6875 0 -1.28125 0.359375q-0.59375 0.359375 -0.859375 1.0625q-0.25 0.703125 -0.25 2.03125l0 5.015625l-1.640625 0z" fill-rule="nonzero"/><path fill="#4a86e8" d="m238.01892 318.5263l-1.09375 0l0 -6.96875q-0.40625 0.375 -1.046875 0.75q-0.640625 0.375 -1.140625 0.578125l0 -1.0625q0.90625 -0.4375 1.59375 -1.046875q0.6875 -0.609375 0.96875 -1.1875l0.71875 0l0 8.9375z" fill-rule="nonzero"/><path fill="#4a86e8" d="m241.21721 312.32318l1.59375 0.234375q0.109375 0.75 0.5625 1.078125q0.609375 0.453125 1.671875 0.453125q1.140625 0 1.75 -0.453125q0.625 -0.453125 0.84375 -1.265625q0.125 -0.5 0.109375 -2.109375q-1.0625 1.265625 -2.671875 1.265625q-2.0 0 -3.09375 -1.4375q-1.09375 -1.4375 -1.09375 -3.453125q0 -1.390625 0.5 -2.5625q0.515625 -1.171875 1.453125 -1.796875q0.953125 -0.640625 2.25 -0.640625q1.703125 0 2.8125 1.375l0 -1.15625l1.515625 0l0 8.359375q0 2.265625 -0.46875 3.203125q-0.453125 0.9375 -1.453125 1.484375q-0.984375 0.546875 -2.453125 0.546875q-1.71875 0 -2.796875 -0.78125q-1.0625 -0.765625 -1.03125 -2.34375zm1.359375 -5.8125q0 1.90625 0.75 2.78125q0.765625 0.875 1.90625 0.875q1.125 0 1.890625 -0.859375q0.765625 -0.875 0.765625 -2.734375q0 -1.78125 -0.796875 -2.671875q-0.78125 -0.90625 -1.890625 -0.90625q-1.09375 0 -1.859375 0.890625q-0.765625 0.875 -0.765625 2.625z" fill-rule="nonzero"/><path fill="#4a86e8" d="m179.53351 331.03568l1.625 -0.25q0.125 0.96875 0.75 1.5q0.625 0.515625 1.75 0.515625q1.125 0 1.671875 -0.453125q0.546875 -0.46875 0.546875 -1.09375q0 -0.546875 -0.484375 -0.875q-0.328125 -0.21875 -1.671875 -0.546875q-1.8125 -0.46875 -2.515625 -0.796875q-0.6875 -0.328125 -1.046875 -0.90625q-0.359375 -0.59375 -0.359375 -1.3125q0 -0.640625 0.296875 -1.1875q0.296875 -0.5625 0.8125 -0.921875q0.375 -0.28125 1.03125 -0.46875q0.671875 -0.203125 1.421875 -0.203125q1.140625 0 2.0 0.328125q0.859375 0.328125 1.265625 0.890625q0.421875 0.5625 0.578125 1.5l-1.609375 0.21875q-0.109375 -0.75 -0.640625 -1.171875q-0.515625 -0.421875 -1.46875 -0.421875q-1.140625 0 -1.625 0.375q-0.46875 0.375 -0.46875 0.875q0 0.3125 0.1875 0.578125q0.203125 0.265625 0.640625 0.4375q0.234375 0.09375 1.4375 0.421875q1.75 0.453125 2.4375 0.75q0.6875 0.296875 1.078125 0.859375q0.390625 0.5625 0.390625 1.40625q0 0.828125 -0.484375 1.546875q-0.46875 0.71875 -1.375 1.125q-0.90625 0.390625 -2.046875 0.390625q-1.875 0 -2.875 -0.78125q-0.984375 -0.78125 -1.25 -2.328125zm9.984375 -8.578125l0 -1.890625l1.640625 0l0 1.890625l-1.640625 0zm0 11.46875l0 -9.671875l1.640625 0l0 9.671875l-1.640625 0zm4.144821 0l0 -9.671875l1.46875 0l0 1.375q1.0625 -1.59375 3.078125 -1.59375q0.875 0 1.609375 0.3125q0.734375 0.3125 1.09375 0.828125q0.375 0.5 0.515625 1.203125q0.09375 0.453125 0.09375 1.59375l0 5.953125l-1.640625 0l0 -5.890625q0 -1.0 -0.203125 -1.484375q-0.1875 -0.5 -0.671875 -0.796875q-0.484375 -0.296875 -1.140625 -0.296875q-1.046875 0 -1.8125 0.671875q-0.75 0.65625 -0.75 2.515625l0 5.28125l-1.640625 0zm13.500717 3.921875q-1.359375 -1.703125 -2.296875 -4.0q-0.9375 -2.296875 -0.9375 -4.765625q0 -2.15625 0.703125 -4.140625q0.828125 -2.3125 2.53125 -4.59375l1.171875 0q-1.09375 1.890625 -1.453125 2.703125q-0.546875 1.25 -0.875 2.625q-0.390625 1.703125 -0.390625 3.421875q0 4.375 2.71875 8.75l-1.171875 0z" fill-rule="nonzero"/><path fill="#4a86e8" d="m212.36047 334.12943q-1.140625 0 -1.921875 -1.015625q-0.765625 -1.015625 -0.765625 -2.46875q0 -1.3125 0.390625 -2.84375q0.390625 -1.546875 1.09375 -3.0q0.71875 -1.46875 1.90625 -2.4375q1.203125 -0.96875 2.609375 -0.96875q1.5 0 2.140625 1.046875q0.65625 1.03125 0.65625 2.625q0 1.28125 -0.40625 2.8125q-0.40625 1.515625 -1.15625 2.953125q-0.734375 1.421875 -1.9375 2.359375q-1.203125 0.9375 -2.609375 0.9375zm4.15625 -6.875q0.390625 -1.609375 0.390625 -3.21875q0 -0.609375 -0.0625 -1.03125q-0.0625 -0.421875 -0.390625 -0.796875q-0.3125 -0.390625 -0.890625 -0.390625q-2.3125 0 -3.671875 5.4375l4.625 0zm-0.109375 0.4375l-4.625 0q-0.546875 2.125 -0.546875 3.796875q0 2.21875 1.21875 2.21875q2.46875 0 3.953125 -6.015625z" fill-rule="nonzero"/><path fill="#4a86e8" d="m223.60114 340.9263l-1.09375 0l0 -6.96875q-0.40625 0.375 -1.046875 0.75q-0.640625 0.375 -1.140625 0.578125l0 -1.0625q0.90625 -0.4375 1.59375 -1.046875q0.6875 -0.609375 0.96875 -1.1875l0.71875 0l0 8.9375z" fill-rule="nonzero"/><path fill="#4a86e8" d="m228.19005 337.84818l-1.1875 0q2.734375 -4.375 2.734375 -8.75q0 -1.71875 -0.390625 -3.390625q-0.3125 -1.375 -0.875 -2.625q-0.359375 -0.828125 -1.46875 -2.734375l1.1875 0q1.703125 2.28125 2.53125 4.59375q0.6875 1.984375 0.6875 4.140625q0 2.46875 -0.9375 4.765625q-0.9375 2.296875 -2.28125 4.0z" fill-rule="nonzero"/><path fill="#000000" fill-opacity="0.0" d="m426.67584 285.6824l69.19687 57.88977" fill-rule="evenodd"/><path stroke="#bf9000" stroke-width="1.0" stroke-linejoin="round" stroke-linecap="butt" d="m426.67584 285.6824l64.59491 54.039825" fill-rule="evenodd"/><path fill="#bf9000" stroke="#bf9000" stroke-width="1.0" stroke-linecap="butt" d="m490.2109 340.98907l4.5405273 1.64505l-2.420807 -4.178772z" fill-rule="evenodd"/><path fill="#000000" fill-opacity="0.0" d="m459.24362 267.65485l170.51968 0l0 42.015747l-170.51968 0z" fill-rule="evenodd"/><path fill="#bf9000" d="m469.77487 294.57486l0 -13.359375l9.015625 0l0 1.578125l-7.25 0l0 4.140625l6.265625 0l0 1.578125l-6.265625 0l0 6.0625l-1.765625 0z" fill-rule="nonzero"/><path fill="#bf9000" d="m482.85837 301.57486l0 -7.859375l-2.921875 0l0 -1.046875l7.046875 0l0 1.046875l-2.9375 0l0 7.859375l-1.1875 0zm9.0190735 0l-1.09375 0l0 -6.96875q-0.40625 0.375 -1.046875 0.75q-0.640625 0.375 -1.140625 0.578125l0 -1.0625q0.90625 -0.4375 1.59375 -1.046875q0.6875 -0.609375 0.96875 -1.1875l0.71875 0l0 8.9375z" fill-rule="nonzero"/><path fill="#bf9000" d="m504.0132 286.71548l-8.828125 0l0 -1.515625l8.828125 0l0 1.515625zm0 4.0625l-8.828125 0l0 -1.53125l8.828125 0l0 1.53125zm2.2699585 3.796875l0 -9.671875l1.46875 0l0 1.359375q0.453125 -0.71875 1.203125 -1.140625q0.765625 -0.4375 1.71875 -0.4375q1.078125 0 1.7656555 0.453125q0.6875 0.4375 0.96875 1.234375q1.15625 -1.6875 2.984375 -1.6875q1.453125 0 2.21875 0.796875q0.78125 0.796875 0.78125 2.453125l0 6.640625l-1.640625 0l0 -6.09375q0 -0.984375 -0.15625 -1.40625q-0.15625 -0.4375 -0.578125 -0.703125q-0.421875 -0.265625 -0.984375 -0.265625q-1.015625 0 -1.6875 0.6875q-0.671875 0.671875 -0.671875 2.15625l0 5.625l-1.640625 0l0 -6.28125q0 -1.09375 -0.40628052 -1.640625q-0.40625 -0.546875 -1.3125 -0.546875q-0.6875 0 -1.28125 0.359375q-0.59375 0.359375 -0.859375 1.0625q-0.25 0.703125 -0.25 2.03125l0 5.015625l-1.640625 0z" fill-rule="nonzero"/><path fill="#bf9000" d="m526.8552 300.52798l0 1.046875l-5.890625 0q-0.015625 -0.390625 0.125 -0.765625q0.234375 -0.59375 0.71875 -1.171875q0.5 -0.59375 1.4375 -1.359375q1.453125 -1.1875 1.953125 -1.875q0.515625 -0.703125 0.515625 -1.3125q0 -0.65625 -0.46875 -1.09375q-0.453125 -0.453125 -1.203125 -0.453125q-0.796875 0 -1.265625 0.46875q-0.46875 0.46875 -0.484375 1.3125l-1.125 -0.109375q0.125 -1.265625 0.875 -1.921875q0.75 -0.65625 2.015625 -0.65625q1.28125 0 2.03125 0.71875q0.75 0.703125 0.75 1.75q0 0.53125 -0.21875 1.046875q-0.21875 0.515625 -0.734375 1.09375q-0.5 0.5625 -1.671875 1.5625q-0.984375 0.828125 -1.265625 1.125q-0.28125 0.296875 -0.46875 0.59375l4.375 0z" fill-rule="nonzero"/><path fill="#bf9000" d="m528.4285 295.37173l1.59375 0.234375q0.109375 0.75 0.5625 1.078125q0.609375 0.453125 1.671875 0.453125q1.140625 0 1.75 -0.453125q0.625 -0.453125 0.84375 -1.265625q0.125 -0.5 0.109375 -2.109375q-1.0625 1.265625 -2.671875 1.265625q-2.0 0 -3.09375 -1.4375q-1.09375 -1.4375 -1.09375 -3.453125q0 -1.390625 0.5 -2.5625q0.515625 -1.171875 1.453125 -1.796875q0.953125 -0.640625 2.25 -0.640625q1.703125 0 2.8125 1.375l0 -1.15625l1.515625 0l0 8.359375q0 2.265625 -0.46875 3.203125q-0.453125 0.9375 -1.453125 1.484375q-0.984375 0.546875 -2.453125 0.546875q-1.71875 0 -2.796875 -0.78125q-1.0625 -0.765625 -1.03125 -2.34375zm1.359375 -5.8125q0 1.90625 0.75 2.78125q0.765625 0.875 1.90625 0.875q1.125 0 1.890625 -0.859375q0.765625 -0.875 0.765625 -2.734375q0 -1.78125 -0.796875 -2.671875q-0.78125 -0.90625 -1.890625 -0.90625q-1.09375 0 -1.859375 0.890625q-0.765625 0.875 -0.765625 2.625zm20.824646 1.46875l1.609375 0.21875q-0.265625 1.65625 -1.359375 2.609375q-1.078125 0.9375 -2.671875 0.9375q-1.984375 0 -3.1875 -1.296875q-1.203125 -1.296875 -1.203125 -3.71875q0 -1.578125 0.515625 -2.75q0.515625 -1.171875 1.578125 -1.75q1.0625 -0.59375 2.3125 -0.59375q1.578125 0 2.578125 0.796875q1.0 0.796875 1.28125 2.265625l-1.59375 0.234375q-0.234375 -0.96875 -0.8125 -1.453125q-0.578125 -0.5 -1.390625 -0.5q-1.234375 0 -2.015625 0.890625q-0.78125 0.890625 -0.78125 2.8125q0 1.953125 0.75 2.84375q0.75 0.875 1.953125 0.875q0.96875 0 1.609375 -0.59375q0.65625 -0.59375 0.828125 -1.828125zm2.40625 -1.296875q0 -2.6875 1.484375 -3.96875q1.25 -1.078125 3.046875 -1.078125q2.0 0 3.265625 1.3125q1.265625 1.296875 1.265625 3.609375q0 1.859375 -0.5625 2.9375q-0.5625 1.0625 -1.640625 1.65625q-1.0625 0.59375 -2.328125 0.59375q-2.03125 0 -3.28125 -1.296875q-1.25 -1.3125 -1.25 -3.765625zm1.6875 0q0 1.859375 0.796875 2.796875q0.8125 0.921875 2.046875 0.921875q1.21875 0 2.03125 -0.921875q0.8125 -0.9375 0.8125 -2.84375q0 -1.796875 -0.8125 -2.71875q-0.8125 -0.921875 -2.03125 -0.921875q-1.234375 0 -2.046875 0.921875q-0.796875 0.90625 -0.796875 2.765625zm8.641357 1.953125l1.625 -0.25q0.125 0.96875 0.75 1.5q0.625 0.515625 1.75 0.515625q1.125 0 1.671875 -0.453125q0.546875 -0.46875 0.546875 -1.09375q0 -0.546875 -0.484375 -0.875q-0.328125 -0.21875 -1.671875 -0.546875q-1.8125 -0.46875 -2.515625 -0.796875q-0.6875 -0.328125 -1.046875 -0.90625q-0.359375 -0.59375 -0.359375 -1.3125q0 -0.640625 0.296875 -1.1875q0.296875 -0.5625 0.8125 -0.921875q0.375 -0.28125 1.03125 -0.46875q0.671875 -0.203125 1.421875 -0.203125q1.140625 0 2.0 0.328125q0.859375 0.328125 1.265625 0.890625q0.421875 0.5625 0.578125 1.5l-1.609375 0.21875q-0.109375 -0.75 -0.640625 -1.171875q-0.515625 -0.421875 -1.46875 -0.421875q-1.140625 0 -1.625 0.375q-0.46875 0.375 -0.46875 0.875q0 0.3125 0.1875 0.578125q0.203125 0.265625 0.640625 0.4375q0.234375 0.09375 1.4375 0.421875q1.75 0.453125 2.4375 0.75q0.6875 0.296875 1.078125 0.859375q0.390625 0.5625 0.390625 1.40625q0 0.828125 -0.484375 1.546875q-0.46875 0.71875 -1.375 1.125q-0.90625 0.390625 -2.046875 0.390625q-1.875 0 -2.875 -0.78125q-0.984375 -0.78125 -1.25 -2.328125zm13.109375 6.8125q-1.359375 -1.703125 -2.296875 -4.0q-0.9375 -2.296875 -0.9375 -4.765625q0 -2.15625 0.703125 -4.140625q0.828125 -2.3125 2.53125 -4.59375l1.171875 0q-1.09375 1.890625 -1.453125 2.703125q-0.546875 1.25 -0.875 2.625q-0.390625 1.703125 -0.390625 3.421875q0 4.375 2.71875 8.75l-1.171875 0z" fill-rule="nonzero"/><path fill="#bf9000" d="m581.65405 294.77798q-1.140625 0 -1.921875 -1.015625q-0.765625 -1.015625 -0.765625 -2.46875q0 -1.3125 0.390625 -2.84375q0.390625 -1.546875 1.09375 -3.0q0.71875 -1.46875 1.90625 -2.4375q1.203125 -0.96875 2.609375 -0.96875q1.5 0 2.140625 1.046875q0.65625 1.03125 0.65625 2.625q0 1.28125 -0.40625 2.8125q-0.40625 1.515625 -1.15625 2.953125q-0.734375 1.421875 -1.9375 2.359375q-1.203125 0.9375 -2.609375 0.9375zm4.15625 -6.875q0.390625 -1.609375 0.390625 -3.21875q0 -0.609375 -0.0625 -1.03125q-0.0625 -0.421875 -0.390625 -0.796875q-0.3125 -0.390625 -0.890625 -0.390625q-2.3125 0 -3.671875 5.4375l4.625 0zm-0.109375 0.4375l-4.625 0q-0.546875 2.125 -0.546875 3.796875q0 2.21875 1.21875 2.21875q2.46875 0 3.953125 -6.015625z" fill-rule="nonzero"/><path fill="#bf9000" d="m594.5197 300.52798l0 1.046875l-5.890625 0q-0.015625 -0.390625 0.125 -0.765625q0.234375 -0.59375 0.71875 -1.171875q0.5 -0.59375 1.4375 -1.359375q1.453125 -1.1875 1.953125 -1.875q0.515625 -0.703125 0.515625 -1.3125q0 -0.65625 -0.46875 -1.09375q-0.453125 -0.453125 -1.203125 -0.453125q-0.796875 0 -1.265625 0.46875q-0.46875 0.46875 -0.484375 1.3125l-1.125 -0.109375q0.125 -1.265625 0.875 -1.921875q0.75 -0.65625 2.015625 -0.65625q1.28125 0 2.03125 0.71875q0.75 0.703125 0.75 1.75q0 0.53125 -0.21875 1.046875q-0.21875 0.515625 -0.734375 1.09375q-0.5 0.5625 -1.671875 1.5625q-0.984375 0.828125 -1.265625 1.125q-0.28125 0.296875 -0.46875 0.59375l4.375 0z" fill-rule="nonzero"/><path fill="#bf9000" d="m597.48364 298.49673l-1.1875 0q2.734375 -4.375 2.734375 -8.75q0 -1.71875 -0.390625 -3.390625q-0.3125 -1.375 -0.875 -2.625q-0.359375 -0.828125 -1.46875 -2.734375l1.1875 0q1.703125 2.28125 2.53125 4.59375q0.6875 1.984375 0.6875 4.140625q0 2.46875 -0.9375 4.765625q-0.9375 2.296875 -2.28125 4.0z" fill-rule="nonzero"/><path fill="#000000" fill-opacity="0.0" d="m405.26642 299.06955l40.661407 0l0 42.015747l-40.661407 0z" fill-rule="evenodd"/><path fill="#000000" d="m417.61017 326.1927q-1.140625 0 -1.921875 -1.015625q-0.765625 -1.015625 -0.765625 -2.46875q0 -1.3125 0.390625 -2.84375q0.390625 -1.546875 1.09375 -3.0q0.71875 -1.46875 1.90625 -2.4375q1.203125 -0.96875 2.609375 -0.96875q1.5 0 2.140625 1.046875q0.65625 1.03125 0.65625 2.625q0 1.28125 -0.40625 2.8125q-0.40625 1.515625 -1.15625 2.953125q-0.734375 1.421875 -1.9375 2.359375q-1.203125 0.9375 -2.609375 0.9375zm4.15625 -6.875q0.390625 -1.609375 0.390625 -3.21875q0 -0.609375 -0.0625 -1.03125q-0.0625 -0.421875 -0.390625 -0.796875q-0.3125 -0.390625 -0.890625 -0.390625q-2.3125 0 -3.671875 5.4375l4.625 0zm-0.109375 0.4375l-4.625 0q-0.546875 2.125 -0.546875 3.796875q0 2.21875 1.21875 2.21875q2.46875 0 3.953125 -6.015625z" fill-rule="nonzero"/><path fill="#000000" d="m430.47583 331.9427l0 1.046875l-5.890625 0q-0.015625 -0.390625 0.125 -0.765625q0.234375 -0.59375 0.71875 -1.171875q0.5 -0.59375 1.4375 -1.359375q1.453125 -1.1875 1.953125 -1.875q0.515625 -0.703125 0.515625 -1.3125q0 -0.65625 -0.46875 -1.09375q-0.453125 -0.453125 -1.203125 -0.453125q-0.796875 0 -1.265625 0.46875q-0.46875 0.46875 -0.484375 1.3125l-1.125 -0.109375q0.125 -1.265625 0.875 -1.921875q0.75 -0.65625 2.015625 -0.65625q1.28125 0 2.03125 0.71875q0.75 0.703125 0.75 1.75q0 0.53125 -0.21875 1.046875q-0.21875 0.515625 -0.734375 1.09375q-0.5 0.5625 -1.671875 1.5625q-0.984375 0.828125 -1.265625 1.125q-0.28125 0.296875 -0.46875 0.59375l4.375 0z" fill-rule="nonzero"/><path fill="#000000" fill-opacity="0.0" d="m169.95407 75.75984l40.661407 0l0 42.015747l-40.661407 0z" fill-rule="evenodd"/><path fill="#000000" d="m182.29782 102.882965q-1.140625 0 -1.921875 -1.015625q-0.765625 -1.015625 -0.765625 -2.46875q0 -1.3125 0.390625 -2.84375q0.390625 -1.546875 1.09375 -3.0q0.71875 -1.46875 1.90625 -2.4375q1.203125 -0.96875 2.609375 -0.96875q1.5 0 2.140625 1.046875q0.65625 1.03125 0.65625 2.625q0 1.28125 -0.40625 2.8125q-0.40625 1.515625 -1.15625 2.953125q-0.734375 1.421875 -1.9375 2.359375q-1.203125 0.9375 -2.609375 0.9375zm4.15625 -6.875q0.390625 -1.609375 0.390625 -3.21875q0 -0.609375 -0.0625 -1.03125q-0.0625 -0.421875 -0.390625 -0.796875q-0.3125 -0.390625 -0.890625 -0.390625q-2.3125 0 -3.671875 5.4375l4.625 0zm-0.109375 0.4375l-4.625 0q-0.546875 2.125 -0.546875 3.796875q0 2.21875 1.21875 2.21875q2.46875 0 3.953125 -6.015625z" fill-rule="nonzero"/><path fill="#000000" d="m193.53848 109.67984l-1.09375 0l0 -6.96875q-0.40625 0.375 -1.046875 0.75q-0.640625 0.375 -1.140625 0.578125l0 -1.0625q0.90625 -0.4375 1.59375 -1.046875q0.6875 -0.609375 0.96875 -1.1875l0.71875 0l0 8.9375z" fill-rule="nonzero"/><path fill="#000000" fill-opacity="0.0" d="m593.5302 436.82678l-81.322876 -79.11813" fill-rule="evenodd"/><path stroke="#bf9000" stroke-width="1.0" stroke-linejoin="round" stroke-linecap="butt" d="m593.5302 436.82678l-77.02234 -74.93417" fill-rule="evenodd"/><path fill="#bf9000" stroke="#bf9000" stroke-width="1.0" stroke-linecap="butt" d="m517.65967 360.7087l-4.40448 -1.9806213l2.100891 4.348419z" fill-rule="evenodd"/><path fill="#000000" fill-opacity="0.0" d="m550.8504 347.07556l170.48816 -0.03149414l0 42.015747l-170.48816 0.03149414z" fill-rule="evenodd"/><path fill="#bf9000" d="m561.38165 373.99362l0 -13.359375l9.015625 -0.0016479492l0 1.578125l-7.25 0.0013122559l0 4.140625l6.265625 -0.0011291504l0 1.578125l-6.265625 0.0011291504l0 6.0625l-1.765625 3.3569336E-4z" fill-rule="nonzero"/><path fill="#bf9000" d="m574.46515 380.9912l0 -7.859375l-2.921875 5.493164E-4l0 -1.046875l7.046875 -0.0013122559l0 1.046875l-2.9375 5.493164E-4l0 7.859375l-1.1875 2.1362305E-4zm10.644043 -1.0488586l0 1.046875l-5.890625 0.0010986328q-0.015625 -0.390625 0.125 -0.7656555q0.234375 -0.5937805 0.71875 -1.1719971q0.5 -0.59384155 1.4375 -1.3596497q1.453125 -1.1877441 1.953125 -1.8753357q0.515625 -0.7032471 0.515625 -1.3126221q0 -0.65625 -0.46875 -1.0936584q-0.453125 -0.45303345 -1.203125 -0.45288086q-0.796875 1.2207031E-4 -1.265625 0.46896362q-0.46875 0.46884155 -0.484375 1.3125916l-1.125 -0.10916138q0.125 -1.2656555 0.875 -1.9220276q0.75 -0.6564026 2.015625 -0.6566467q1.28125 -2.1362305E-4 2.03125 0.7183838q0.75 0.7030029 0.75 1.7498779q0 0.53125 -0.21875 1.0469055q-0.21875 0.5156555 -0.734375 1.0938721q-0.5 0.56259155 -1.671875 1.5628052q-0.984375 0.8283081 -1.265625 1.1252441q-0.28125 0.29693604 -0.46875 0.59384155l4.375 -8.239746E-4z" fill-rule="nonzero"/><path fill="#bf9000" d="m599.07544 366.1273l-8.828125 0.0016174316l0 -1.515625l8.828125 -0.0016174316l0 1.515625zm0 4.0625l-8.828125 0.0016174316l0 -1.53125l8.828125 -0.0016174316l0 1.53125zm6.812683 -0.22000122l0 -1.640625l5.03125 -9.460449E-4l0 1.640625l-5.03125 9.460449E-4zm6.8532715 4.0143433l0 -9.671875l1.46875 -2.746582E-4l0 1.359375q0.453125 -0.71881104 1.203125 -1.1408386q0.765625 -0.4376526 1.71875 -0.43780518q1.078125 -2.1362305E-4 1.765625 0.4527893q0.6875 0.43737793 0.96875 1.2341919q1.15625 -1.6877136 2.984375 -1.6880493q1.453125 -2.746582E-4 2.21875 0.7964783q0.78125 0.7967224 0.78125 2.4529724l0 6.640625l-1.640625 3.0517578E-4l0 -6.09375q0 -0.984375 -0.15625 -1.4062195q-0.15625 -0.43746948 -0.578125 -0.70303345q-0.421875 -0.26553345 -0.984375 -0.2654419q-1.015625 1.8310547E-4 -1.6875 0.6878052q-0.671875 0.6719971 -0.671875 2.156372l0 5.625l-1.640625 3.0517578E-4l0 -6.28125q0 -1.09375 -0.40625 -1.6405334q-0.40625 -0.54681396 -1.3125 -0.54663086q-0.6875 1.2207031E-4 -1.28125 0.35961914q-0.59375 0.35946655 -0.859375 1.0626526q-0.25 0.7031555 -0.25 2.0312805l0 5.015625l-1.640625 3.0517578E-4z" fill-rule="nonzero"/><path fill="#bf9000" d="m631.6885 380.98065l-1.09375 1.8310547E-4l0 -6.96875q-0.40625 0.37509155 -1.046875 0.7501831q-0.640625 0.37512207 -1.140625 0.5783386l0 -1.0625q0.90625 -0.4376526 1.59375 -1.0471497q0.6875 -0.6094971 0.96875 -1.1876831l0.71875 -1.2207031E-4l0 8.9375z" fill-rule="nonzero"/><path fill="#bf9000" d="m634.8867 374.77692l1.59375 0.23410034q0.109375 0.7499695 0.5625 1.0780029q0.609375 0.45300293 1.671875 0.45281982q1.140625 -2.1362305E-4 1.75 -0.4534607q0.625 -0.45321655 0.84375 -1.2657776q0.125 -0.5 0.109375 -2.109375q-1.0625 1.2658081 -2.671875 1.2661133q-2.0 3.6621094E-4 -3.09375 -1.4369202q-1.09375 -1.4373169 -1.09375 -3.452942q0 -1.390625 0.5 -2.5625916q0.515625 -1.1719666 1.453125 -1.7971497q0.953125 -0.6407776 2.25 -0.6410217q1.703125 -3.3569336E-4 2.8125 1.3744812l0 -1.15625l1.515625 -3.0517578E-4l0 8.3594055q0 2.265625 -0.46875 3.203186q-0.453125 0.93759155 -1.453125 1.4846497q-0.984375 0.5470581 -2.453125 0.54733276q-1.71875 3.0517578E-4 -2.796875 -0.7807312q-1.0625 -0.7654419 -1.03125 -2.343567zm1.359375 -5.812744q0 1.90625 0.75 2.7810974q0.765625 0.8748779 1.90625 0.8746643q1.125 -2.1362305E-4 1.890625 -0.8597412q0.765625 -0.8751221 0.765625 -2.734497q0 -1.78125 -0.796875 -2.6717224q-0.78125 -0.9061279 -1.890625 -0.9059143q-1.09375 2.1362305E-4 -1.859375 0.8909607q-0.765625 0.8751526 -0.765625 2.6251526zm20.824646 1.4649048l1.609375 0.21844482q-0.265625 1.656311 -1.359375 2.6096191q-1.078125 0.9377136 -2.671875 0.9380188q-1.984375 3.6621094E-4 -3.1875 -1.2962952q-1.203125 -1.2966614 -1.203125 -3.7185364q0 -1.578125 0.515625 -2.7500916q0.515625 -1.1719666 1.578125 -1.7503052q1.0625 -0.5939331 2.3125 -0.59417725q1.578125 -2.746582E-4 2.578125 0.79641724q1.0 0.7966919 1.28125 2.2653809l-1.59375 0.23468018q-0.234375 -0.9687195 -0.8125 -1.4529724q-0.578125 -0.49990845 -1.390625 -0.49975586q-1.234375 2.4414062E-4 -2.015625 0.8909912q-0.78125 0.8907776 -0.78125 2.8126526q0 1.953125 0.75 2.8435974q0.75 0.8748779 1.953125 0.8746643q0.96875 -1.8310547E-4 1.609375 -0.5940552q0.65625 -0.5938721 0.828125 -1.8282776zm2.40625 -1.2973328q0 -2.6875 1.484375 -3.9690247q1.25 -1.0783386 3.046875 -1.0786743q2.0 -3.6621094E-4 3.265625 1.3118896q1.265625 1.2966309 1.265625 3.6091309q0 1.859375 -0.5625 2.937622q-0.5625 1.0625916 -1.640625 1.6565552q-1.0625 0.5939331 -2.328125 0.59417725q-2.03125 3.6621094E-4 -3.28125 -1.2962646q-1.25 -1.3122864 -1.25 -3.7654114zm1.6875 -3.0517578E-4q0 1.859375 0.796875 2.7967224q0.8125 0.9217224 2.046875 0.9215088q1.21875 -2.4414062E-4 2.03125 -0.9222412q0.8125 -0.9376526 0.8125 -2.8439026q0 -1.796875 -0.8125 -2.7185974q-0.8125 -0.9217529 -2.03125 -0.9215088q-1.234375 2.1362305E-4 -2.046875 0.9222412q-0.796875 0.9064026 -0.796875 2.7657776zm8.641357 1.9515381l1.625 -0.25030518q0.125 0.9687195 0.75 1.4998474q0.625 0.51553345 1.75 0.5153198q1.125 -2.1362305E-4 1.671875 -0.45343018q0.546875 -0.46887207 0.546875 -1.0938721q0 -0.546875 -0.484375 -0.87490845q-0.328125 -0.21868896 -1.671875 -0.5465698q-1.8125 -0.4684143 -2.515625 -0.7963867q-0.6875 -0.32800293 -1.046875 -0.9060669q-0.359375 -0.59368896 -0.359375 -1.312439q0 -0.640625 0.296875 -1.187561q0.296875 -0.5625305 0.8125 -0.9220276q0.375 -0.28131104 1.03125 -0.4689331q0.671875 -0.20324707 1.421875 -0.20336914q1.140625 -2.1362305E-4 2.0 0.32772827q0.859375 0.3279724 1.265625 0.8904114q0.421875 0.56240845 0.578125 1.4998779l-1.609375 0.21905518q-0.109375 -0.7499695 -0.640625 -1.1717529q-0.515625 -0.42178345 -1.46875 -0.42160034q-1.140625 2.1362305E-4 -1.625 0.37530518q-0.46875 0.37509155 -0.46875 0.87509155q0 0.3125 0.1875 0.57806396q0.203125 0.26559448 0.640625 0.43740845q0.234375 0.093688965 1.4375 0.42160034q1.75 0.4527893 2.4375 0.74954224q0.6875 0.29675293 1.078125 0.8591919q0.390625 0.56240845 0.390625 1.4061584q0 0.828125 -0.484375 1.5469666q-0.46875 0.71884155 -1.375 1.1252441q-0.90625 0.3908081 -2.046875 0.39102173q-1.875 3.3569336E-4 -2.875 -0.7807312q-0.984375 -0.7810669 -1.25 -2.3278809zm13.109375 6.8100586q-1.359375 -1.7028503 -2.296875 -3.9995728q-0.9375 -2.296692 -0.9375 -4.765442q0 -2.15625 0.703125 -4.140747q0.828125 -2.3126526 2.53125 -4.5942383l1.171875 -2.1362305E-4q-1.09375 1.8908386 -1.453125 2.7033997q-0.546875 1.2500916 -0.875 2.6251526q-0.390625 1.7032166 -0.390625 3.4219666q0 4.375 2.71875 8.749481l-1.171875 2.1362305E-4z" fill-rule="nonzero"/><path fill="#bf9000" d="m688.1123 374.17334q-1.140625 2.1362305E-4 -1.921875 -1.0152588q-0.765625 -1.0155029 -0.765625 -2.468628q0 -1.3125 0.390625 -2.843811q0.390625 -1.5469666 1.09375 -3.0002136q0.71875 -1.4688721 1.90625 -2.4378357q1.203125 -0.96899414 2.609375 -0.9692383q1.5 -2.746582E-4 2.140625 1.0464783q0.65625 1.0311279 0.65625 2.624878q0 1.28125 -0.40625 2.812561q-0.40625 1.5157166 -1.15625 2.9533386q-0.734375 1.4220276 -1.9375 2.3597412q-1.203125 0.9377136 -2.609375 0.9379883zm4.15625 -6.875763q0.390625 -1.6094666 0.390625 -3.2188416q0 -0.609375 -0.0625 -1.0312195q-0.0625 -0.421875 -0.390625 -0.79681396q-0.3125 -0.39056396 -0.890625 -0.3904419q-2.3125 4.272461E-4 -3.671875 5.4381714l4.625 -8.544922E-4zm-0.109375 0.4375l-4.625 8.544922E-4q-0.546875 2.125122 -0.546875 3.796997q0 2.21875 1.21875 2.2185059q2.46875 -4.5776367E-4 3.953125 -6.0163574z" fill-rule="nonzero"/><path fill="#bf9000" d="m699.35297 380.96814l-1.09375 2.1362305E-4l0 -6.96875q-0.40625 0.37506104 -1.046875 0.7501831q-0.640625 0.37512207 -1.140625 0.5783386l0 -1.0625q0.90625 -0.4376831 1.59375 -1.0471802q0.6875 -0.6094971 0.96875 -1.1876831l0.71875 -1.2207031E-4l0 8.9375z" fill-rule="nonzero"/><path fill="#bf9000" d="m703.94183 377.88916l-1.1875 2.1362305E-4q2.734375 -4.3754883 2.734375 -8.750488q0 -1.71875 -0.390625 -3.390564q-0.3125 -1.374939 -0.875 -2.6248474q-0.359375 -0.82803345 -1.46875 -2.7341003l1.1875 -2.1362305E-4q1.703125 2.2809448 2.53125 4.593292q0.6875 1.9842529 0.6875 4.140503q0 2.46875 -0.9375 4.7657776q-0.9375 2.297058 -2.28125 4.0004272z" fill-rule="nonzero"/><path fill="#000000" fill-opacity="0.0" d="m587.5958 519.23096l-87.40161 90.01575" fill-rule="evenodd"/><path stroke="#4a86e8" stroke-width="1.0" stroke-linejoin="round" stroke-linecap="butt" d="m587.5958 519.23096l-83.221924 85.71112" fill-rule="evenodd"/><path fill="#4a86e8" stroke="#4a86e8" stroke-width="1.0" stroke-linecap="butt" d="m503.18887 603.79144l-1.9762573 4.406433l4.3463135 -2.1052246z" fill-rule="evenodd"/><path fill="#000000" fill-opacity="0.0" d="m357.1496 299.07086l-87.40158 90.01575" fill-rule="evenodd"/><path stroke="#4a86e8" stroke-width="1.0" stroke-linejoin="round" stroke-linecap="butt" d="m357.1496 299.07086l-83.22189 85.71109" fill-rule="evenodd"/><path fill="#4a86e8" stroke="#4a86e8" stroke-width="1.0" stroke-linecap="butt" d="m272.74268 383.63132l-1.9762573 4.4064636l4.3463135 -2.1052246z" fill-rule="evenodd"/></g></svg>